<svg xmlns="http://www.w3.org/2000/svg" width="795" xmlns:xlink="http://www.w3.org/1999/xlink" height="290" viewBox="0 0 795 290"><defs><linearGradient gradientUnits="userSpaceOnUse" id="lg1" x1="235" x2="558" y1="-136" y2="424"><stop stop-color="#ebebeb" offset="0.00"/><stop stop-color="#ffffff" offset="0.80"/><stop stop-color="#ebebeb" offset="1.00"/></linearGradient></defs><g transform="translate(-37.00,-519.00)"><path stroke-width="1" id="shape1" fill="url(#lg1)" fill-rule="nonzero" transform="translate(38.000000,520.000000)" stroke="#101843" d="M793.0,270.0L793.0,18.0C793.0,8.1,784.9,.0,775.0,.0L18.0,.0C8.1,.0,.0,8.1,.0,18.0L.0,270.0C.0,279.9,8.1,288.0,18.0,288.0L775.0,288.0C784.9,288.0,793.0,279.9,793.0,270.0z"/><g id="group2" transform="translate(76.000000,529.000000)"><path stroke-width="1" id="shape3" fill="#ffffff" fill-rule="nonzero" stroke="#101843" d="M642.0,107.0L642.0,7.0C642.0,3.1,638.9,.0,635.0,.0L7.0,.0C3.1,.0,.0,3.1,.0,7.0L.0,107.0C.0,110.9,3.1,114.0,7.0,114.0L635.0,114.0C638.9,114.0,642.0,110.9,642.0,107.0z"/><g id="shape4" transform="translate(6.000000,9.000000)"><path stroke-width="1" fill="#ffffff" fill-rule="nonzero" stroke="#101843" d="M126.0,51.0L126.0,7.0C126.0,3.1,122.9,.0,119.0,.0L7.0,.0C3.1,.0,.0,3.1,.0,7.0L.0,51.0C.0,54.9,3.1,58.0,7.0,58.0L119.0,58.0C122.9,58.0,126.0,54.9,126.0,51.0z"/><text xml:space="preserve" style="fill:#191919;font-family:Monaspace Radon,PingFang SC,Mircrosoft YaHei,Arial;font-size:10.00pt"><tspan style="font-family:Monaspace Radon,PingFang SC,Mircrosoft YaHei,Arial" x="56.3" y="15.5">q</tspan><tspan textLength="5.0" style="font-family:Monaspace Radon,PingFang SC,Mircrosoft YaHei,Arial;font-size:6.50pt" x="64.8" y="18.1">0</tspan><tspan textLength="17.0" style="font-family:Monaspace Radon,PingFang SC,Mircrosoft YaHei,Arial" x="8.8" y="31.5">(x</tspan><tspan textLength="5.0" style="font-family:Monaspace Radon,PingFang SC,Mircrosoft YaHei,Arial;font-size:6.50pt" x="25.8" y="34.1">1</tspan><tspan textLength="17.0" style="font-family:Monaspace Radon,PingFang SC,Mircrosoft YaHei,Arial" x="30.8" y="31.5">,x</tspan><tspan textLength="5.0" style="font-family:Monaspace Radon,PingFang SC,Mircrosoft YaHei,Arial;font-size:6.50pt" x="47.8" y="34.1">2</tspan><tspan textLength="51.0" style="font-family:Monaspace Radon,PingFang SC,Mircrosoft YaHei,Arial" x="52.8" y="31.5">,...,x</tspan><tspan textLength="5.0" style="font-family:Monaspace Radon,PingFang SC,Mircrosoft YaHei,Arial;font-size:6.50pt" x="103.8" y="34.1">d</tspan><tspan textLength="8.5" style="font-family:Monaspace Radon,PingFang SC,Mircrosoft YaHei,Arial" x="108.8" y="31.5">)</tspan><tspan style="font-family:Monaspace Radon,PingFang SC,Mircrosoft YaHei,Arial" x="28.3" y="47.5">float x</tspan><tspan textLength="10.0" style="font-family:Monaspace Radon,PingFang SC,Mircrosoft YaHei,Arial;font-size:6.50pt" x="87.8" y="50.1">i;</tspan></text></g><g id="shape5" transform="translate(137.000500,8.999950)"><path stroke-width="1" fill="#ffffff" fill-rule="nonzero" stroke="#101843" d="M118.8,26.0L118.8,7.0C118.8,3.1,115.7,.0,111.8,.0L7.0,.0C3.1,.0,.0,3.1,.0,7.0L.0,26.0C.0,29.9,3.1,33.0,7.0,33.0L111.8,33.0C115.7,33.0,118.8,29.9,118.8,26.0z"/><text xml:space="preserve" style="fill:#191919;font-family:Monaspace Radon,PingFang SC,Mircrosoft YaHei,Arial;font-size:12.00pt"><tspan style="font-family:Monaspace Radon,PingFang SC,Mircrosoft YaHei,Arial" x="23.2" y="20.0">Heap</tspan><tspan textLength="32.5" style="font-family:Monaspace Radon,PingFang SC,Mircrosoft YaHei,Arial;font-size:7.80pt" x="63.2" y="23.1">(0,0)</tspan></text></g><g id="shape6" transform="translate(255.809500,8.999950)"><path stroke-width="1" fill="#ffffff" fill-rule="nonzero" stroke="#101843" d="M118.8,26.0L118.8,7.0C118.8,3.1,115.7,.0,111.8,.0L7.0,.0C3.1,.0,.0,3.1,.0,7.0L.0,26.0C.0,29.9,3.1,33.0,7.0,33.0L111.8,33.0C115.7,33.0,118.8,29.9,118.8,26.0z"/><text xml:space="preserve" style="fill:#191919;font-family:Monaspace Radon,PingFang SC,Mircrosoft YaHei,Arial;font-size:12.00pt"><tspan style="font-family:Monaspace Radon,PingFang SC,Mircrosoft YaHei,Arial" x="23.2" y="20.0">Heap</tspan><tspan textLength="32.5" style="font-family:Monaspace Radon,PingFang SC,Mircrosoft YaHei,Arial;font-size:7.80pt" x="63.2" y="23.1">(1,0)</tspan></text></g><g id="shape7" transform="translate(493.427500,8.999950)"><path stroke-width="1" fill="#ffffff" fill-rule="nonzero" stroke="#101843" d="M118.8,26.0L118.8,7.0C118.8,3.1,115.7,.0,111.8,.0L7.0,.0C3.1,.0,.0,3.1,.0,7.0L.0,26.0C.0,29.9,3.1,33.0,7.0,33.0L111.8,33.0C115.7,33.0,118.8,29.9,118.8,26.0z"/><text xml:space="preserve" style="fill:#191919;font-family:Monaspace Radon,PingFang SC,Mircrosoft YaHei,Arial;font-size:12.00pt"><tspan style="font-family:Monaspace Radon,PingFang SC,Mircrosoft YaHei,Arial" x="16.7" y="20.0">Heap</tspan><tspan textLength="45.5" style="font-family:Monaspace Radon,PingFang SC,Mircrosoft YaHei,Arial;font-size:7.80pt" x="56.7" y="23.1">(t-1,0)</tspan></text></g><g id="shape8" transform="translate(374.618500,8.999950)"><path stroke-width="1" stroke-opacity="0.00" fill="#ffffff" fill-rule="nonzero" fill-opacity="0.00" stroke="#000000" d="M118.8,26.0L118.8,7.0C118.8,3.1,115.7,.0,111.8,.0L7.0,.0C3.1,.0,.0,3.1,.0,7.0L.0,26.0C.0,29.9,3.1,33.0,7.0,33.0L111.8,33.0C115.7,33.0,118.8,29.9,118.8,26.0z"/><text xml:space="preserve" style="fill:#191919;font-family:Monaspace Radon,PingFang SC,Mircrosoft YaHei,Arial;font-size:10.00pt"><tspan style="font-family:Monaspace Radon,PingFang SC,Mircrosoft YaHei,Arial" x="46.7" y="19.0">...</tspan></text></g><g id="shape9" transform="translate(152.729500,55.272950)"><path stroke-width="1" fill="#ffffff" fill-rule="nonzero" stroke="#101843" d="M168.8,28.8L168.8,7.0C168.8,3.1,165.6,.0,161.8,.0L7.0,.0C3.1,.0,.0,3.1,.0,7.0L.0,28.8C.0,32.7,3.1,35.8,7.0,35.8L161.8,35.8C165.6,35.8,168.8,32.7,168.8,28.8z"/><text xml:space="preserve" style="fill:#191919;font-family:Monaspace Radon,PingFang SC,Mircrosoft YaHei,Arial;font-size:12.00pt"><tspan style="font-family:Monaspace Radon,PingFang SC,Mircrosoft YaHei,Arial" x="48.1" y="21.4">Heap</tspan><tspan textLength="32.5" style="font-family:Monaspace Radon,PingFang SC,Mircrosoft YaHei,Arial;font-size:7.80pt" x="88.1" y="24.5">(0,0)</tspan></text></g><g id="shape10" transform="translate(374.618000,42.000000)"><text xml:space="preserve" style="fill:#191919;font-family:Monaspace Radon,PingFang SC,Mircrosoft YaHei,Arial;font-size:10.00pt"><tspan style="font-family:Monaspace Radon,PingFang SC,Mircrosoft YaHei,Arial" x="21.8" y="23.5">t*k heaps</tspan></text></g></g><g id="group11" transform="translate(94.000000,547.000000)"><path stroke-width="1" id="shape12" fill="#ffffff" fill-rule="nonzero" stroke="#101843" d="M642.0,107.0L642.0,7.0C642.0,3.1,638.9,.0,635.0,.0L7.0,.0C3.1,.0,.0,3.1,.0,7.0L.0,107.0C.0,110.9,3.1,114.0,7.0,114.0L635.0,114.0C638.9,114.0,642.0,110.9,642.0,107.0z"/><g id="shape13" transform="translate(6.000000,9.000000)"><path stroke-width="1" fill="#ffffff" fill-rule="nonzero" stroke="#101843" d="M126.0,51.0L126.0,7.0C126.0,3.1,122.9,.0,119.0,.0L7.0,.0C3.1,.0,.0,3.1,.0,7.0L.0,51.0C.0,54.9,3.1,58.0,7.0,58.0L119.0,58.0C122.9,58.0,126.0,54.9,126.0,51.0z"/><text xml:space="preserve" style="fill:#191919;font-family:Monaspace Radon,PingFang SC,Mircrosoft YaHei,Arial;font-size:10.00pt"><tspan style="font-family:Monaspace Radon,PingFang SC,Mircrosoft YaHei,Arial" x="56.3" y="15.5">q</tspan><tspan textLength="5.0" style="font-family:Monaspace Radon,PingFang SC,Mircrosoft YaHei,Arial;font-size:6.50pt" x="64.8" y="18.1">0</tspan><tspan textLength="17.0" style="font-family:Monaspace Radon,PingFang SC,Mircrosoft YaHei,Arial" x="8.8" y="31.5">(x</tspan><tspan textLength="5.0" style="font-family:Monaspace Radon,PingFang SC,Mircrosoft YaHei,Arial;font-size:6.50pt" x="25.8" y="34.1">1</tspan><tspan textLength="17.0" style="font-family:Monaspace Radon,PingFang SC,Mircrosoft YaHei,Arial" x="30.8" y="31.5">,x</tspan><tspan textLength="5.0" style="font-family:Monaspace Radon,PingFang SC,Mircrosoft YaHei,Arial;font-size:6.50pt" x="47.8" y="34.1">2</tspan><tspan textLength="51.0" style="font-family:Monaspace Radon,PingFang SC,Mircrosoft YaHei,Arial" x="52.8" y="31.5">,...,x</tspan><tspan textLength="5.0" style="font-family:Monaspace Radon,PingFang SC,Mircrosoft YaHei,Arial;font-size:6.50pt" x="103.8" y="34.1">d</tspan><tspan textLength="8.5" style="font-family:Monaspace Radon,PingFang SC,Mircrosoft YaHei,Arial" x="108.8" y="31.5">)</tspan><tspan style="font-family:Monaspace Radon,PingFang SC,Mircrosoft YaHei,Arial" x="28.3" y="47.5">float x</tspan><tspan textLength="10.0" style="font-family:Monaspace Radon,PingFang SC,Mircrosoft YaHei,Arial;font-size:6.50pt" x="87.8" y="50.1">i;</tspan></text></g><g id="shape14" transform="translate(137.000500,8.999900)"><path stroke-width="1" fill="#ffffff" fill-rule="nonzero" stroke="#101843" d="M118.8,26.0L118.8,7.0C118.8,3.1,115.7,.0,111.8,.0L7.0,.0C3.1,.0,.0,3.1,.0,7.0L.0,26.0C.0,29.9,3.1,33.0,7.0,33.0L111.8,33.0C115.7,33.0,118.8,29.9,118.8,26.0z"/><text xml:space="preserve" style="fill:#191919;font-family:Monaspace Radon,PingFang SC,Mircrosoft YaHei,Arial;font-size:12.00pt"><tspan style="font-family:Monaspace Radon,PingFang SC,Mircrosoft YaHei,Arial" x="23.2" y="20.0">Heap</tspan><tspan textLength="32.5" style="font-family:Monaspace Radon,PingFang SC,Mircrosoft YaHei,Arial;font-size:7.80pt" x="63.2" y="23.1">(0,0)</tspan></text></g><g id="shape15" transform="translate(255.809500,8.999900)"><path stroke-width="1" fill="#ffffff" fill-rule="nonzero" stroke="#101843" d="M118.8,26.0L118.8,7.0C118.8,3.1,115.7,.0,111.8,.0L7.0,.0C3.1,.0,.0,3.1,.0,7.0L.0,26.0C.0,29.9,3.1,33.0,7.0,33.0L111.8,33.0C115.7,33.0,118.8,29.9,118.8,26.0z"/><text xml:space="preserve" style="fill:#191919;font-family:Monaspace Radon,PingFang SC,Mircrosoft YaHei,Arial;font-size:12.00pt"><tspan style="font-family:Monaspace Radon,PingFang SC,Mircrosoft YaHei,Arial" x="23.2" y="20.0">Heap</tspan><tspan textLength="32.5" style="font-family:Monaspace Radon,PingFang SC,Mircrosoft YaHei,Arial;font-size:7.80pt" x="63.2" y="23.1">(1,0)</tspan></text></g><g id="shape16" transform="translate(493.427500,8.999900)"><path stroke-width="1" fill="#ffffff" fill-rule="nonzero" stroke="#101843" d="M118.8,26.0L118.8,7.0C118.8,3.1,115.7,.0,111.8,.0L7.0,.0C3.1,.0,.0,3.1,.0,7.0L.0,26.0C.0,29.9,3.1,33.0,7.0,33.0L111.8,33.0C115.7,33.0,118.8,29.9,118.8,26.0z"/><text xml:space="preserve" style="fill:#191919;font-family:Monaspace Radon,PingFang SC,Mircrosoft YaHei,Arial;font-size:12.00pt"><tspan style="font-family:Monaspace Radon,PingFang SC,Mircrosoft YaHei,Arial" x="16.7" y="20.0">Heap</tspan><tspan textLength="45.5" style="font-family:Monaspace Radon,PingFang SC,Mircrosoft YaHei,Arial;font-size:7.80pt" x="56.7" y="23.1">(t-1,0)</tspan></text></g><g id="shape17" transform="translate(374.618500,8.999900)"><path stroke-width="1" stroke-opacity="0.00" fill="#ffffff" fill-rule="nonzero" fill-opacity="0.00" stroke="#000000" d="M118.8,26.0L118.8,7.0C118.8,3.1,115.7,.0,111.8,.0L7.0,.0C3.1,.0,.0,3.1,.0,7.0L.0,26.0C.0,29.9,3.1,33.0,7.0,33.0L111.8,33.0C115.7,33.0,118.8,29.9,118.8,26.0z"/><text xml:space="preserve" style="fill:#191919;font-family:Monaspace Radon,PingFang SC,Mircrosoft YaHei,Arial;font-size:10.00pt"><tspan style="font-family:Monaspace Radon,PingFang SC,Mircrosoft YaHei,Arial" x="46.7" y="19.0">...</tspan></text></g><g id="shape18" transform="translate(152.729500,55.272900)"><path stroke-width="1" fill="#ffffff" fill-rule="nonzero" stroke="#101843" d="M168.8,28.8L168.8,7.0C168.8,3.1,165.6,.0,161.8,.0L7.0,.0C3.1,.0,.0,3.1,.0,7.0L.0,28.8C.0,32.7,3.1,35.8,7.0,35.8L161.8,35.8C165.6,35.8,168.8,32.7,168.8,28.8z"/><text xml:space="preserve" style="fill:#191919;font-family:Monaspace Radon,PingFang SC,Mircrosoft YaHei,Arial;font-size:12.00pt"><tspan style="font-family:Monaspace Radon,PingFang SC,Mircrosoft YaHei,Arial" x="48.1" y="21.4">Heap</tspan><tspan textLength="32.5" style="font-family:Monaspace Radon,PingFang SC,Mircrosoft YaHei,Arial;font-size:7.80pt" x="88.1" y="24.5">(0,0)</tspan></text></g><g id="shape19" transform="translate(374.618000,42.000000)"><text xml:space="preserve" style="fill:#191919;font-family:Monaspace Radon,PingFang SC,Mircrosoft YaHei,Arial;font-size:10.00pt"><tspan style="font-family:Monaspace Radon,PingFang SC,Mircrosoft YaHei,Arial" x="21.8" y="23.5">t*k heaps</tspan></text></g></g><g id="group20" transform="translate(113.000000,562.000000)"><path stroke-width="1" id="shape21" fill="#ffffff" fill-rule="nonzero" stroke="#101843" d="M642.0,107.0L642.0,7.0C642.0,3.1,638.9,.0,635.0,.0L7.0,.0C3.1,.0,.0,3.1,.0,7.0L.0,107.0C.0,110.9,3.1,114.0,7.0,114.0L635.0,114.0C638.9,114.0,642.0,110.9,642.0,107.0z"/><g id="shape22" transform="translate(6.000000,9.000000)"><path stroke-width="1" fill="#ffffff" fill-rule="nonzero" stroke="#101843" d="M126.0,51.0L126.0,7.0C126.0,3.1,122.9,.0,119.0,.0L7.0,.0C3.1,.0,.0,3.1,.0,7.0L.0,51.0C.0,54.9,3.1,58.0,7.0,58.0L119.0,58.0C122.9,58.0,126.0,54.9,126.0,51.0z"/><text xml:space="preserve" style="fill:#191919;font-family:Monaspace Radon,PingFang SC,Mircrosoft YaHei,Arial;font-size:10.00pt"><tspan style="font-family:Monaspace Radon,PingFang SC,Mircrosoft YaHei,Arial" x="56.3" y="15.5">q</tspan><tspan textLength="5.0" style="font-family:Monaspace Radon,PingFang SC,Mircrosoft YaHei,Arial;font-size:6.50pt" x="64.8" y="18.1">0</tspan><tspan textLength="17.0" style="font-family:Monaspace Radon,PingFang SC,Mircrosoft YaHei,Arial" x="8.8" y="31.5">(x</tspan><tspan textLength="5.0" style="font-family:Monaspace Radon,PingFang SC,Mircrosoft YaHei,Arial;font-size:6.50pt" x="25.8" y="34.1">1</tspan><tspan textLength="17.0" style="font-family:Monaspace Radon,PingFang SC,Mircrosoft YaHei,Arial" x="30.8" y="31.5">,x</tspan><tspan textLength="5.0" style="font-family:Monaspace Radon,PingFang SC,Mircrosoft YaHei,Arial;font-size:6.50pt" x="47.8" y="34.1">2</tspan><tspan textLength="51.0" style="font-family:Monaspace Radon,PingFang SC,Mircrosoft YaHei,Arial" x="52.8" y="31.5">,...,x</tspan><tspan textLength="5.0" style="font-family:Monaspace Radon,PingFang SC,Mircrosoft YaHei,Arial;font-size:6.50pt" x="103.8" y="34.1">d</tspan><tspan textLength="8.5" style="font-family:Monaspace Radon,PingFang SC,Mircrosoft YaHei,Arial" x="108.8" y="31.5">)</tspan><tspan style="font-family:Monaspace Radon,PingFang SC,Mircrosoft YaHei,Arial" x="28.3" y="47.5">float x</tspan><tspan textLength="10.0" style="font-family:Monaspace Radon,PingFang SC,Mircrosoft YaHei,Arial;font-size:6.50pt" x="87.8" y="50.1">i;</tspan></text></g><g id="shape23" transform="translate(137.000500,8.999900)"><path stroke-width="1" fill="#ffffff" fill-rule="nonzero" stroke="#101843" d="M118.8,26.0L118.8,7.0C118.8,3.1,115.7,.0,111.8,.0L7.0,.0C3.1,.0,.0,3.1,.0,7.0L.0,26.0C.0,29.9,3.1,33.0,7.0,33.0L111.8,33.0C115.7,33.0,118.8,29.9,118.8,26.0z"/><text xml:space="preserve" style="fill:#191919;font-family:Monaspace Radon,PingFang SC,Mircrosoft YaHei,Arial;font-size:12.00pt"><tspan style="font-family:Monaspace Radon,PingFang SC,Mircrosoft YaHei,Arial" x="23.2" y="20.0">Heap</tspan><tspan textLength="32.5" style="font-family:Monaspace Radon,PingFang SC,Mircrosoft YaHei,Arial;font-size:7.80pt" x="63.2" y="23.1">(0,0)</tspan></text></g><g id="shape24" transform="translate(255.809500,8.999900)"><path stroke-width="1" fill="#ffffff" fill-rule="nonzero" stroke="#101843" d="M118.8,26.0L118.8,7.0C118.8,3.1,115.7,.0,111.8,.0L7.0,.0C3.1,.0,.0,3.1,.0,7.0L.0,26.0C.0,29.9,3.1,33.0,7.0,33.0L111.8,33.0C115.7,33.0,118.8,29.9,118.8,26.0z"/><text xml:space="preserve" style="fill:#191919;font-family:Monaspace Radon,PingFang SC,Mircrosoft YaHei,Arial;font-size:12.00pt"><tspan style="font-family:Monaspace Radon,PingFang SC,Mircrosoft YaHei,Arial" x="23.2" y="20.0">Heap</tspan><tspan textLength="32.5" style="font-family:Monaspace Radon,PingFang SC,Mircrosoft YaHei,Arial;font-size:7.80pt" x="63.2" y="23.1">(1,0)</tspan></text></g><g id="shape25" transform="translate(493.427500,8.999900)"><path stroke-width="1" fill="#ffffff" fill-rule="nonzero" stroke="#101843" d="M118.8,26.0L118.8,7.0C118.8,3.1,115.7,.0,111.8,.0L7.0,.0C3.1,.0,.0,3.1,.0,7.0L.0,26.0C.0,29.9,3.1,33.0,7.0,33.0L111.8,33.0C115.7,33.0,118.8,29.9,118.8,26.0z"/><text xml:space="preserve" style="fill:#191919;font-family:Monaspace Radon,PingFang SC,Mircrosoft YaHei,Arial;font-size:12.00pt"><tspan style="font-family:Monaspace Radon,PingFang SC,Mircrosoft YaHei,Arial" x="16.7" y="20.0">Heap</tspan><tspan textLength="45.5" style="font-family:Monaspace Radon,PingFang SC,Mircrosoft YaHei,Arial;font-size:7.80pt" x="56.7" y="23.1">(t-1,0)</tspan></text></g><g id="shape26" transform="translate(374.618500,8.999900)"><path stroke-width="1" stroke-opacity="0.00" fill="#ffffff" fill-rule="nonzero" fill-opacity="0.00" stroke="#000000" d="M118.8,26.0L118.8,7.0C118.8,3.1,115.7,.0,111.8,.0L7.0,.0C3.1,.0,.0,3.1,.0,7.0L.0,26.0C.0,29.9,3.1,33.0,7.0,33.0L111.8,33.0C115.7,33.0,118.8,29.9,118.8,26.0z"/><text xml:space="preserve" style="fill:#191919;font-family:Monaspace Radon,PingFang SC,Mircrosoft YaHei,Arial;font-size:10.00pt"><tspan style="font-family:Monaspace Radon,PingFang SC,Mircrosoft YaHei,Arial" x="46.7" y="19.0">...</tspan></text></g><g id="shape27" transform="translate(152.729500,55.272900)"><path stroke-width="1" fill="#ffffff" fill-rule="nonzero" stroke="#101843" d="M168.8,28.8L168.8,7.0C168.8,3.1,165.6,.0,161.8,.0L7.0,.0C3.1,.0,.0,3.1,.0,7.0L.0,28.8C.0,32.7,3.1,35.8,7.0,35.8L161.8,35.8C165.6,35.8,168.8,32.7,168.8,28.8z"/><text xml:space="preserve" style="fill:#191919;font-family:Monaspace Radon,PingFang SC,Mircrosoft YaHei,Arial;font-size:12.00pt"><tspan style="font-family:Monaspace Radon,PingFang SC,Mircrosoft YaHei,Arial" x="48.1" y="21.4">Heap</tspan><tspan textLength="32.5" style="font-family:Monaspace Radon,PingFang SC,Mircrosoft YaHei,Arial;font-size:7.80pt" x="88.1" y="24.5">(0,0)</tspan></text></g><g id="shape28" transform="translate(374.618000,42.000000)"><text xml:space="preserve" style="fill:#191919;font-family:Monaspace Radon,PingFang SC,Mircrosoft YaHei,Arial;font-size:10.00pt"><tspan style="font-family:Monaspace Radon,PingFang SC,Mircrosoft YaHei,Arial" x="21.8" y="23.5">t*k heaps</tspan></text></g></g><g id="group29" transform="translate(128.000000,576.000000)"><path stroke-width="1" id="shape30" fill="#ffffff" fill-rule="nonzero" stroke="#101843" d="M642.0,107.0L642.0,7.0C642.0,3.1,638.9,.0,635.0,.0L7.0,.0C3.1,.0,.0,3.1,.0,7.0L.0,107.0C.0,110.9,3.1,114.0,7.0,114.0L635.0,114.0C638.9,114.0,642.0,110.9,642.0,107.0z"/><g id="shape31" transform="translate(6.000000,9.000000)"><path stroke-width="1" fill="#ffffff" fill-rule="nonzero" stroke="#101843" d="M126.0,51.0L126.0,7.0C126.0,3.1,122.9,.0,119.0,.0L7.0,.0C3.1,.0,.0,3.1,.0,7.0L.0,51.0C.0,54.9,3.1,58.0,7.0,58.0L119.0,58.0C122.9,58.0,126.0,54.9,126.0,51.0z"/><text xml:space="preserve" style="fill:#191919;font-family:Monaspace Radon,PingFang SC,Mircrosoft YaHei,Arial;font-size:10.00pt"><tspan style="font-family:Monaspace Radon,PingFang SC,Mircrosoft YaHei,Arial" x="56.3" y="15.5">q</tspan><tspan textLength="5.0" style="font-family:Monaspace Radon,PingFang SC,Mircrosoft YaHei,Arial;font-size:6.50pt" x="64.8" y="18.1">0</tspan><tspan textLength="17.0" style="font-family:Monaspace Radon,PingFang SC,Mircrosoft YaHei,Arial" x="8.8" y="31.5">(x</tspan><tspan textLength="5.0" style="font-family:Monaspace Radon,PingFang SC,Mircrosoft YaHei,Arial;font-size:6.50pt" x="25.8" y="34.1">1</tspan><tspan textLength="17.0" style="font-family:Monaspace Radon,PingFang SC,Mircrosoft YaHei,Arial" x="30.8" y="31.5">,x</tspan><tspan textLength="5.0" style="font-family:Monaspace Radon,PingFang SC,Mircrosoft YaHei,Arial;font-size:6.50pt" x="47.8" y="34.1">2</tspan><tspan textLength="51.0" style="font-family:Monaspace Radon,PingFang SC,Mircrosoft YaHei,Arial" x="52.8" y="31.5">,...,x</tspan><tspan textLength="5.0" style="font-family:Monaspace Radon,PingFang SC,Mircrosoft YaHei,Arial;font-size:6.50pt" x="103.8" y="34.1">d</tspan><tspan textLength="8.5" style="font-family:Monaspace Radon,PingFang SC,Mircrosoft YaHei,Arial" x="108.8" y="31.5">)</tspan><tspan style="font-family:Monaspace Radon,PingFang SC,Mircrosoft YaHei,Arial" x="28.3" y="47.5">float x</tspan><tspan textLength="10.0" style="font-family:Monaspace Radon,PingFang SC,Mircrosoft YaHei,Arial;font-size:6.50pt" x="87.8" y="50.1">i;</tspan></text></g><g id="shape32" transform="translate(137.000500,8.999900)"><path stroke-width="1" fill="#ffffff" fill-rule="nonzero" stroke="#101843" d="M118.8,26.0L118.8,7.0C118.8,3.1,115.7,.0,111.8,.0L7.0,.0C3.1,.0,.0,3.1,.0,7.0L.0,26.0C.0,29.9,3.1,33.0,7.0,33.0L111.8,33.0C115.7,33.0,118.8,29.9,118.8,26.0z"/><text xml:space="preserve" style="fill:#191919;font-family:Monaspace Radon,PingFang SC,Mircrosoft YaHei,Arial;font-size:12.00pt"><tspan style="font-family:Monaspace Radon,PingFang SC,Mircrosoft YaHei,Arial" x="23.2" y="20.0">Heap</tspan><tspan textLength="32.5" style="font-family:Monaspace Radon,PingFang SC,Mircrosoft YaHei,Arial;font-size:7.80pt" x="63.2" y="23.1">(0,0)</tspan></text></g><g id="shape33" transform="translate(255.809500,8.999900)"><path stroke-width="1" fill="#ffffff" fill-rule="nonzero" stroke="#101843" d="M118.8,26.0L118.8,7.0C118.8,3.1,115.7,.0,111.8,.0L7.0,.0C3.1,.0,.0,3.1,.0,7.0L.0,26.0C.0,29.9,3.1,33.0,7.0,33.0L111.8,33.0C115.7,33.0,118.8,29.9,118.8,26.0z"/><text xml:space="preserve" style="fill:#191919;font-family:Monaspace Radon,PingFang SC,Mircrosoft YaHei,Arial;font-size:12.00pt"><tspan style="font-family:Monaspace Radon,PingFang SC,Mircrosoft YaHei,Arial" x="23.2" y="20.0">Heap</tspan><tspan textLength="32.5" style="font-family:Monaspace Radon,PingFang SC,Mircrosoft YaHei,Arial;font-size:7.80pt" x="63.2" y="23.1">(1,0)</tspan></text></g><g id="shape34" transform="translate(493.427500,8.999900)"><path stroke-width="1" fill="#ffffff" fill-rule="nonzero" stroke="#101843" d="M118.8,26.0L118.8,7.0C118.8,3.1,115.7,.0,111.8,.0L7.0,.0C3.1,.0,.0,3.1,.0,7.0L.0,26.0C.0,29.9,3.1,33.0,7.0,33.0L111.8,33.0C115.7,33.0,118.8,29.9,118.8,26.0z"/><text xml:space="preserve" style="fill:#191919;font-family:Monaspace Radon,PingFang SC,Mircrosoft YaHei,Arial;font-size:12.00pt"><tspan style="font-family:Monaspace Radon,PingFang SC,Mircrosoft YaHei,Arial" x="16.7" y="20.0">Heap</tspan><tspan textLength="45.5" style="font-family:Monaspace Radon,PingFang SC,Mircrosoft YaHei,Arial;font-size:7.80pt" x="56.7" y="23.1">(t-1,0)</tspan></text></g><g id="shape35" transform="translate(374.618500,8.999900)"><path stroke-width="1" stroke-opacity="0.00" fill="#ffffff" fill-rule="nonzero" fill-opacity="0.00" stroke="#000000" d="M118.8,26.0L118.8,7.0C118.8,3.1,115.7,.0,111.8,.0L7.0,.0C3.1,.0,.0,3.1,.0,7.0L.0,26.0C.0,29.9,3.1,33.0,7.0,33.0L111.8,33.0C115.7,33.0,118.8,29.9,118.8,26.0z"/><text xml:space="preserve" style="fill:#191919;font-family:Monaspace Radon,PingFang SC,Mircrosoft YaHei,Arial;font-size:10.00pt"><tspan style="font-family:Monaspace Radon,PingFang SC,Mircrosoft YaHei,Arial" x="46.7" y="19.0">...</tspan></text></g><g id="shape36" transform="translate(152.729500,55.272900)"><path stroke-width="1" fill="#ffffff" fill-rule="nonzero" stroke="#101843" d="M168.8,28.8L168.8,7.0C168.8,3.1,165.6,.0,161.8,.0L7.0,.0C3.1,.0,.0,3.1,.0,7.0L.0,28.8C.0,32.7,3.1,35.8,7.0,35.8L161.8,35.8C165.6,35.8,168.8,32.7,168.8,28.8z"/><text xml:space="preserve" style="fill:#191919;font-family:Monaspace Radon,PingFang SC,Mircrosoft YaHei,Arial;font-size:12.00pt"><tspan style="font-family:Monaspace Radon,PingFang SC,Mircrosoft YaHei,Arial" x="48.1" y="21.4">Heap</tspan><tspan textLength="32.5" style="font-family:Monaspace Radon,PingFang SC,Mircrosoft YaHei,Arial;font-size:7.80pt" x="88.1" y="24.5">(0,0)</tspan></text></g><g id="shape37" transform="translate(374.618000,42.000000)"><text xml:space="preserve" style="fill:#191919;font-family:Monaspace Radon,PingFang SC,Mircrosoft YaHei,Arial;font-size:10.00pt"><tspan style="font-family:Monaspace Radon,PingFang SC,Mircrosoft YaHei,Arial" x="21.8" y="23.5">t*k heaps</tspan></text></g></g><path stroke-width="1" id="shape38" fill="#ffffff" fill-rule="nonzero" transform="translate(142.000000,598.136364)" stroke="#101843" d="M642.0,107.0L642.0,7.0C642.0,3.1,638.9,.0,635.0,.0L7.0,.0C3.1,.0,.0,3.1,.0,7.0L.0,107.0C.0,110.9,3.1,114.0,7.0,114.0L635.0,114.0C638.9,114.0,642.0,110.9,642.0,107.0z"/><g id="shape39" transform="translate(148.000000,607.136364)"><path stroke-width="1" fill="#ffffff" fill-rule="nonzero" stroke="#101843" d="M126.0,51.0L126.0,7.0C126.0,3.1,122.9,.0,119.0,.0L7.0,.0C3.1,.0,.0,3.1,.0,7.0L.0,51.0C.0,54.9,3.1,58.0,7.0,58.0L119.0,58.0C122.9,58.0,126.0,54.9,126.0,51.0z"/><text xml:space="preserve" style="fill:#191919;font-family:Monaspace Radon,PingFang SC,Mircrosoft YaHei,Arial;font-size:10.00pt"><tspan style="font-family:Monaspace Radon,PingFang SC,Mircrosoft YaHei,Arial" x="56.3" y="15.5">q</tspan><tspan textLength="5.0" style="font-family:Monaspace Radon,PingFang SC,Mircrosoft YaHei,Arial;font-size:6.50pt" x="64.8" y="18.1">0</tspan><tspan textLength="17.0" style="font-family:Monaspace Radon,PingFang SC,Mircrosoft YaHei,Arial" x="8.8" y="31.5">(x</tspan><tspan textLength="5.0" style="font-family:Monaspace Radon,PingFang SC,Mircrosoft YaHei,Arial;font-size:6.50pt" x="25.8" y="34.1">1</tspan><tspan textLength="17.0" style="font-family:Monaspace Radon,PingFang SC,Mircrosoft YaHei,Arial" x="30.8" y="31.5">,x</tspan><tspan textLength="5.0" style="font-family:Monaspace Radon,PingFang SC,Mircrosoft YaHei,Arial;font-size:6.50pt" x="47.8" y="34.1">2</tspan><tspan textLength="51.0" style="font-family:Monaspace Radon,PingFang SC,Mircrosoft YaHei,Arial" x="52.8" y="31.5">,...,x</tspan><tspan textLength="5.0" style="font-family:Monaspace Radon,PingFang SC,Mircrosoft YaHei,Arial;font-size:6.50pt" x="103.8" y="34.1">d</tspan><tspan textLength="8.5" style="font-family:Monaspace Radon,PingFang SC,Mircrosoft YaHei,Arial" x="108.8" y="31.5">)</tspan><tspan style="font-family:Monaspace Radon,PingFang SC,Mircrosoft YaHei,Arial" x="28.3" y="47.5">float x</tspan><tspan textLength="10.0" style="font-family:Monaspace Radon,PingFang SC,Mircrosoft YaHei,Arial;font-size:6.50pt" x="87.8" y="50.1">i;</tspan></text></g><g id="shape40" transform="translate(279.000000,607.136364)"><path stroke-width="1" fill="#ffffff" fill-rule="nonzero" stroke="#101843" d="M118.8,26.0L118.8,7.0C118.8,3.1,115.7,.0,111.8,.0L7.0,.0C3.1,.0,.0,3.1,.0,7.0L.0,26.0C.0,29.9,3.1,33.0,7.0,33.0L111.8,33.0C115.7,33.0,118.8,29.9,118.8,26.0z"/><text xml:space="preserve" style="fill:#191919;font-family:Monaspace Radon,PingFang SC,Mircrosoft YaHei,Arial;font-size:12.00pt"><tspan style="font-family:Monaspace Radon,PingFang SC,Mircrosoft YaHei,Arial" x="23.2" y="20.5">Heap</tspan><tspan textLength="32.5" style="font-family:Monaspace Radon,PingFang SC,Mircrosoft YaHei,Arial;font-size:7.80pt" x="63.2" y="23.6">(0,0)</tspan></text></g><g id="shape41" transform="translate(397.809000,607.136364)"><path stroke-width="1" fill="#ffffff" fill-rule="nonzero" stroke="#101843" d="M118.8,26.0L118.8,7.0C118.8,3.1,115.7,.0,111.8,.0L7.0,.0C3.1,.0,.0,3.1,.0,7.0L.0,26.0C.0,29.9,3.1,33.0,7.0,33.0L111.8,33.0C115.7,33.0,118.8,29.9,118.8,26.0z"/><text xml:space="preserve" style="fill:#191919;font-family:Monaspace Radon,PingFang SC,Mircrosoft YaHei,Arial;font-size:12.00pt"><tspan style="font-family:Monaspace Radon,PingFang SC,Mircrosoft YaHei,Arial" x="23.2" y="20.5">Heap</tspan><tspan textLength="32.5" style="font-family:Monaspace Radon,PingFang SC,Mircrosoft YaHei,Arial;font-size:7.80pt" x="63.2" y="23.6">(1,0)</tspan></text></g><g id="shape42" transform="translate(635.427000,607.136364)"><path stroke-width="1" fill="#ffffff" fill-rule="nonzero" stroke="#101843" d="M118.8,26.0L118.8,7.0C118.8,3.1,115.7,.0,111.8,.0L7.0,.0C3.1,.0,.0,3.1,.0,7.0L.0,26.0C.0,29.9,3.1,33.0,7.0,33.0L111.8,33.0C115.7,33.0,118.8,29.9,118.8,26.0z"/><text xml:space="preserve" style="fill:#191919;font-family:Monaspace Radon,PingFang SC,Mircrosoft YaHei,Arial;font-size:12.00pt"><tspan style="font-family:Monaspace Radon,PingFang SC,Mircrosoft YaHei,Arial" x="16.7" y="20.5">Heap</tspan><tspan textLength="45.5" style="font-family:Monaspace Radon,PingFang SC,Mircrosoft YaHei,Arial;font-size:7.80pt" x="56.7" y="23.6">(t-1,0)</tspan></text></g><g id="shape43" transform="translate(516.618000,607.136364)"><path stroke-width="1" stroke-opacity="0.00" fill="#ffffff" fill-rule="nonzero" fill-opacity="0.00" stroke="#000000" d="M118.8,26.0L118.8,7.0C118.8,3.1,115.7,.0,111.8,.0L7.0,.0C3.1,.0,.0,3.1,.0,7.0L.0,26.0C.0,29.9,3.1,33.0,7.0,33.0L111.8,33.0C115.7,33.0,118.8,29.9,118.8,26.0z"/><text xml:space="preserve" style="fill:#191919;font-family:Monaspace Radon,PingFang SC,Mircrosoft YaHei,Arial;font-size:10.00pt"><tspan style="font-family:Monaspace Radon,PingFang SC,Mircrosoft YaHei,Arial" x="46.7" y="19.5">...</tspan></text></g><g id="shape44" transform="translate(294.730103,653.409091)"><path stroke-width="1" fill="#ffffff" fill-rule="nonzero" stroke="#101843" d="M168.8,139.5L168.8,7.0C168.8,3.1,165.6,.0,161.8,.0L7.0,.0C3.1,.0,.0,3.1,.0,7.0L.0,139.5C.0,143.3,3.1,146.5,7.0,146.5L161.8,146.5C165.6,146.5,168.8,143.3,168.8,139.5z"/><text xml:space="preserve" style="fill:#191919;font-family:Monaspace Radon,PingFang SC,Mircrosoft YaHei,Arial;font-size:12.00pt"><tspan style="font-family:Monaspace Radon,PingFang SC,Mircrosoft YaHei,Arial" x="59.4" y="48.5">Top-k</tspan><tspan style="font-family:Monaspace Radon,PingFang SC,Mircrosoft YaHei,Arial" x="9.4" y="67.5">(ID,similarity)</tspan><tspan style="font-family:Monaspace Radon,PingFang SC,Mircrosoft YaHei,Arial" x="2.4" y="86.5">int64:ID;</tspan><tspan style="font-family:Monaspace Radon,PingFang SC,Mircrosoft YaHei,Arial" x="2.4" y="105.5">float:similarity</tspan></text></g><g id="shape45" transform="translate(294.730109,653.409091)"><path stroke-width="1" fill="#ffffff" fill-rule="nonzero" stroke="#101843" d="M168.8,28.8L168.8,7.0C168.8,3.1,165.6,.0,161.8,.0L7.0,.0C3.1,.0,.0,3.1,.0,7.0L.0,28.8C.0,32.7,3.1,35.8,7.0,35.8L161.8,35.8C165.6,35.8,168.8,32.7,168.8,28.8z"/><text xml:space="preserve" style="fill:#191919;font-family:Monaspace Radon,PingFang SC,Mircrosoft YaHei,Arial;font-size:12.00pt"><tspan style="font-family:Monaspace Radon,PingFang SC,Mircrosoft YaHei,Arial" x="48.1" y="21.4">Heap</tspan><tspan textLength="32.5" style="font-family:Monaspace Radon,PingFang SC,Mircrosoft YaHei,Arial;font-size:7.80pt" x="88.1" y="24.5">(0,0)</tspan></text></g><g id="shape46" transform="translate(516.618000,640.136464)"><text xml:space="preserve" style="fill:#191919;font-family:Monaspace Radon,PingFang SC,Mircrosoft YaHei,Arial;font-size:10.00pt"><tspan style="font-family:Monaspace Radon,PingFang SC,Mircrosoft YaHei,Arial" x="21.8" y="24.0">t*k heaps</tspan></text></g><g id="shape47" transform="translate(338.404700,640.136464)"><path stroke-width="2.666666746139526" stroke-dasharray="5.33333,13.3333" fill="none" stroke="#ff0000" d="M.0,.0L31.4,10.2"/><path stroke-width="1" fill="#ff0000" stroke-linecap="round" stroke="#ff0000" d="M32.9,5.6L40.7,13.3L29.9,14.9L32.9,5.6"/></g><g id="shape48" transform="translate(688.000000,520.000000)"><text xml:space="preserve" style="fill:#191919;font-family:Monaspace Radon,PingFang SC,Mircrosoft YaHei,Arial;font-size:24.00pt"><tspan style="font-family:Monaspace Radon,PingFang SC,Mircrosoft YaHei,Arial" x="50.0" y="36.0">s</tspan></text></g><text stroke-width="1" id="shape49" fill="#004098" paint-order="stroke" transform="matrix(1.971866,0.000000,0.000000,2.000000,494.650036,760.839636)" stroke="#323232"><tspan style="font-family:Monaspace Radon,PingFang SC,Mircrosoft YaHei,Arial;font-size:36.00pt;font-weight:bold">cache</tspan></text></g></svg>