<svg xmlns="http://www.w3.org/2000/svg" xmlns:xlink="http://www.w3.org/1999/xlink" height="234" viewBox="0 0 443 234" width="443"><defs/><g transform="translate(-483.89,-37.52)"><g id="shape1" transform="translate(496.772726,38.850894)"><path fill-rule="nonzero" fill="#ffffff" stroke="#101843" stroke-width="1" d="M114.0,38.0L114.0,.0L.0,.0L.0,38.0L114.0,38.0z"/><text xml:space="preserve" style="fill:#191919;font-family:Monaspace Radon,PingFang SC,Mircrosoft YaHei,Arial;font-size:16.00pt"><tspan y="25.0" x="46.0" style="font-family:Monaspace Radon,PingFang SC,Mircrosoft YaHei,Arial">v</tspan><tspan textLength="8.5" y="29.2" x="59.5" style="font-family:Monaspace Radon,PingFang SC,Mircrosoft YaHei,Arial;font-size:10.40pt">0</tspan></text></g><g id="shape2" transform="translate(496.772726,76.850894)"><path fill-rule="nonzero" fill="#ffffff" stroke="#101843" stroke-width="1" d="M114.0,38.0L114.0,.0L.0,.0L.0,38.0L114.0,38.0z"/><text xml:space="preserve" style="fill:#191919;font-family:Monaspace Radon,PingFang SC,Mircrosoft YaHei,Arial;font-size:16.00pt"><tspan y="25.0" x="46.0" style="font-family:Monaspace Radon,PingFang SC,Mircrosoft YaHei,Arial">v</tspan><tspan textLength="8.5" y="29.2" x="59.5" style="font-family:Monaspace Radon,PingFang SC,Mircrosoft YaHei,Arial;font-size:10.40pt">1</tspan></text></g><g id="shape3" transform="translate(496.772726,114.850894)"><path fill-rule="nonzero" fill="#ffffff" stroke="#101843" stroke-width="1" d="M114.0,38.0L114.0,.0L.0,.0L.0,38.0L114.0,38.0z"/><text xml:space="preserve" style="fill:#191919;font-family:Monaspace Radon,PingFang SC,Mircrosoft YaHei,Arial;font-size:16.00pt"><tspan y="25.0" x="46.0" style="font-family:Monaspace Radon,PingFang SC,Mircrosoft YaHei,Arial">v</tspan><tspan textLength="8.5" y="29.2" x="59.5" style="font-family:Monaspace Radon,PingFang SC,Mircrosoft YaHei,Arial;font-size:10.40pt">2</tspan></text></g><g id="shape4" transform="translate(496.772726,152.850894)"><path fill-rule="nonzero" fill="#ffffff" stroke="#101843" stroke-width="1" d="M114.0,38.0L114.0,.0L.0,.0L.0,38.0L114.0,38.0z"/><text xml:space="preserve" style="fill:#191919;font-family:微软雅黑,PingFang SC,Mircrosoft YaHei,Arial;font-size:16.00pt"><tspan y="26.0" x="49.5" style="font-family:微软雅黑,PingFang SC,Mircrosoft YaHei,Arial">...</tspan></text></g><g id="shape5" transform="translate(496.772726,190.850894)"><path fill-rule="nonzero" fill="#ffffff" stroke="#101843" stroke-width="1" d="M114.0,38.0L114.0,.0L.0,.0L.0,38.0L114.0,38.0z"/><text xml:space="preserve" style="fill:#191919;font-family:Monaspace Radon,PingFang SC,Mircrosoft YaHei,Arial;font-size:16.00pt"><tspan y="25.0" x="37.5" style="font-family:Monaspace Radon,PingFang SC,Mircrosoft YaHei,Arial">v</tspan><tspan textLength="25.5" y="29.2" x="51.0" style="font-family:Monaspace Radon,PingFang SC,Mircrosoft YaHei,Arial;font-size:10.40pt">b-1</tspan></text></g><path id="shape6" stroke="#191919" fill="none" stroke-width="2.666670083999634" transform="matrix(0.000000,1.000000,-1.000000,0.000000,506.772726,51.363894)" d="M.0,.0C113.0,75.0,37.0,-76.0,151.0,.0"/><path id="shape7" stroke="#191919" fill="none" stroke-width="2.666670083999634" transform="matrix(0.000000,1.000000,-1.000000,0.000000,667.652923,38.850894)" d="M.0,.0C113.0,75.0,37.0,-76.0,151.0,.0"/><g id="shape8" transform="translate(812.000000,38.850894)"><path fill-rule="nonzero" fill="#ffffff" stroke="#101843" stroke-width="1" d="M114.0,38.0L114.0,.0L.0,.0L.0,38.0L114.0,38.0z"/><text xml:space="preserve" style="fill:#191919;font-family:Monaspace Radon,PingFang SC,Mircrosoft YaHei,Arial;font-size:10.40pt"><tspan y="25.0" x="20.5" style="font-family:Monaspace Radon,PingFang SC,Mircrosoft YaHei,Arial;font-size:16.00pt">V</tspan><tspan textLength="59.5" y="29.2" x="34.0" style="font-family:Monaspace Radon,PingFang SC,Mircrosoft YaHei,Arial">(t-1)*b</tspan></text></g><g id="shape9" transform="translate(812.000000,76.850894)"><path fill-rule="nonzero" fill="#ffffff" stroke="#101843" stroke-width="1" d="M114.0,38.0L114.0,.0L.0,.0L.0,38.0L114.0,38.0z"/><text xml:space="preserve" style="fill:#191919;font-family:Monaspace Radon,PingFang SC,Mircrosoft YaHei,Arial;font-size:16.00pt"><tspan y="25.0" x="12.0" style="font-family:Monaspace Radon,PingFang SC,Mircrosoft YaHei,Arial">V</tspan><tspan textLength="76.5" y="29.2" x="25.5" style="font-family:Monaspace Radon,PingFang SC,Mircrosoft YaHei,Arial;font-size:10.40pt">(t-1)*b+1</tspan></text></g><g id="shape10" transform="translate(812.000000,114.850894)"><path fill-rule="nonzero" fill="#ffffff" stroke="#101843" stroke-width="1" d="M114.0,38.0L114.0,.0L.0,.0L.0,38.0L114.0,38.0z"/><text xml:space="preserve" style="fill:#191919;font-family:Monaspace Radon,PingFang SC,Mircrosoft YaHei,Arial;font-size:16.00pt"><tspan y="25.0" x="36.8" style="font-family:Monaspace Radon,PingFang SC,Mircrosoft YaHei,Arial">...</tspan></text></g><g id="shape11" transform="translate(812.000000,152.850894)"><path fill-rule="nonzero" fill="#ffffff" stroke="#101843" stroke-width="1" d="M114.0,38.0L114.0,.0L.0,.0L.0,38.0L114.0,38.0z"/><text xml:space="preserve" style="fill:#191919;font-family:Monaspace Radon,PingFang SC,Mircrosoft YaHei,Arial;font-size:16.00pt"><tspan y="25.0" x="36.8" style="font-family:Monaspace Radon,PingFang SC,Mircrosoft YaHei,Arial">...</tspan></text></g><g id="shape12" transform="translate(812.000000,190.850894)"><path fill-rule="nonzero" fill="#ffffff" stroke="#101843" stroke-width="1" d="M114.0,38.0L114.0,.0L.0,.0L.0,38.0L114.0,38.0z"/><text xml:space="preserve" style="fill:#191919;font-family:Monaspace Radon,PingFang SC,Mircrosoft YaHei,Arial;font-size:16.00pt"><tspan y="25.0" x="29.0" style="font-family:Monaspace Radon,PingFang SC,Mircrosoft YaHei,Arial">v</tspan><tspan textLength="42.5" y="29.2" x="42.5" style="font-family:Monaspace Radon,PingFang SC,Mircrosoft YaHei,Arial;font-size:10.40pt">t*b-1</tspan></text></g><path id="shape13" stroke="#191919" fill="none" stroke-width="2.666670083999634" transform="matrix(0.000000,1.000000,-1.000000,0.000000,822.000000,51.360894)" d="M.0,.0C113.0,75.0,37.0,-76.0,151.0,.0"/><path id="shape14" stroke="#191919" fill="none" stroke-width="2.666670083999634" transform="matrix(0.000000,1.000000,-1.000000,0.000000,676.652923,42.824894)" d="M.0,.0C113.0,75.0,37.0,-76.0,151.0,.0"/><path id="shape15" stroke="#191919" fill="none" stroke-width="2.666670083999634" transform="matrix(0.000000,1.000000,-1.000000,0.000000,686.652923,46.821894)" d="M.0,.0C113.0,75.0,37.0,-76.0,151.0,.0"/><path id="shape16" stroke="#191919" fill="none" stroke-width="2.666670083999634" transform="matrix(0.000000,1.000000,-1.000000,0.000000,695.652923,51.824894)" d="M.0,.0C113.0,75.0,37.0,-76.0,151.0,.0"/><path id="shape17" stroke="#191919" fill="none" stroke-width="2.666670083999634" transform="matrix(0.000000,1.000000,-1.000000,0.000000,704.652923,56.821894)" d="M.0,.0C113.0,75.0,37.0,-76.0,151.0,.0"/><path id="shape18" stroke="#191919" fill="none" stroke-width="2.666670083999634" transform="matrix(0.000000,1.000000,-1.000000,0.000000,712.606923,62.637894)" d="M.0,.0C113.0,75.0,37.0,-76.0,151.0,.0"/><path id="shape19" stroke="#191919" fill="none" stroke-width="2.666670083999634" transform="matrix(0.000000,1.000000,-1.000000,0.000000,721.606923,66.611894)" d="M.0,.0C113.0,75.0,37.0,-76.0,151.0,.0"/><path id="shape20" stroke="#191919" fill="none" stroke-width="2.666670083999634" transform="matrix(0.000000,1.000000,-1.000000,0.000000,731.606923,70.608894)" d="M.0,.0C113.0,75.0,37.0,-76.0,151.0,.0"/><path id="shape21" stroke="#191919" fill="none" stroke-width="2.666670083999634" transform="matrix(0.000000,1.000000,-1.000000,0.000000,740.606923,75.611894)" d="M.0,.0C113.0,75.0,37.0,-76.0,151.0,.0"/><path id="shape22" stroke="#191919" fill="none" stroke-width="2.666670083999634" transform="matrix(0.000000,1.000000,-1.000000,0.000000,749.606923,80.608894)" d="M.0,.0C113.0,75.0,37.0,-76.0,151.0,.0"/><g id="shape23" transform="translate(490.772726,228.850894)"><text xml:space="preserve" style="fill:#191919;font-family:Monaspace Radon,PingFang SC,Mircrosoft YaHei,Arial;font-size:16.00pt"><tspan y="27.5" x="49.0" style="font-family:Monaspace Radon,PingFang SC,Mircrosoft YaHei,Arial">T</tspan><tspan textLength="8.5" y="31.7" x="62.5" style="font-family:Monaspace Radon,PingFang SC,Mircrosoft YaHei,Arial;font-size:10.40pt">0</tspan></text></g><g id="shape24" transform="translate(806.000000,228.850894)"><text xml:space="preserve" style="fill:#191919;font-family:Monaspace Radon,PingFang SC,Mircrosoft YaHei,Arial;font-size:16.00pt"><tspan y="27.5" x="40.5" style="font-family:Monaspace Radon,PingFang SC,Mircrosoft YaHei,Arial">T</tspan><tspan textLength="25.5" y="31.7" x="54.0" style="font-family:Monaspace Radon,PingFang SC,Mircrosoft YaHei,Arial;font-size:10.40pt">t-1</tspan></text></g></g></svg>