<svg xmlns="http://www.w3.org/2000/svg" width="505" xmlns:xlink="http://www.w3.org/1999/xlink" height="603" viewBox="0 0 505 603"><defs/><g transform="translate(-345.84,-131.00)"><path stroke-width="2.666666746139526" stroke-dasharray="5.33333,13.3333" id="shape1" fill="#ffffff" fill-rule="nonzero" transform="translate(347.168933,222.513443)" stroke="#101843" d="M375.0,218.0L375.0,7.0C375.0,3.1,371.9,.0,368.0,.0L7.0,.0C3.1,.0,.0,3.1,.0,7.0L.0,218.0C.0,221.9,3.1,225.0,7.0,225.0L368.0,225.0C371.9,225.0,375.0,221.9,375.0,218.0z"/><g id="shape2" transform="translate(736.000000,132.000000)"><path stroke-width="1" fill="#ffffff" fill-rule="nonzero" stroke="#101843" d="M114.0,38.0L114.0,.0L.0,.0L.0,38.0L114.0,38.0z"/><text xml:space="preserve" style="fill:#191919;font-family:Monaspace Radon,PingFang SC,Mircrosoft YaHei,Arial;font-size:16.00pt"><tspan style="font-family:Monaspace Radon,PingFang SC,Mircrosoft YaHei,Arial" x="46.0" y="25.0">q</tspan><tspan textLength="8.5" style="font-family:Monaspace Radon,PingFang SC,Mircrosoft YaHei,Arial;font-size:10.40pt" x="59.5" y="29.2">0</tspan></text></g><g id="shape3" transform="translate(736.000000,170.000000)"><path stroke-width="1" fill="#ffffff" fill-rule="nonzero" stroke="#101843" d="M114.0,38.0L114.0,.0L.0,.0L.0,38.0L114.0,38.0z"/><text xml:space="preserve" style="fill:#191919;font-family:Monaspace Radon,PingFang SC,Mircrosoft YaHei,Arial;font-size:16.00pt"><tspan style="font-family:Monaspace Radon,PingFang SC,Mircrosoft YaHei,Arial" x="46.0" y="25.0">q</tspan><tspan textLength="8.5" style="font-family:Monaspace Radon,PingFang SC,Mircrosoft YaHei,Arial;font-size:10.40pt" x="59.5" y="29.2">1</tspan></text></g><g id="shape4" transform="translate(736.000000,208.000000)"><path stroke-width="1" fill="#ffffff" fill-rule="nonzero" stroke="#101843" d="M114.0,38.0L114.0,.0L.0,.0L.0,38.0L114.0,38.0z"/><text xml:space="preserve" style="fill:#191919;font-family:Monaspace Radon,PingFang SC,Mircrosoft YaHei,Arial;font-size:16.00pt"><tspan style="font-family:Monaspace Radon,PingFang SC,Mircrosoft YaHei,Arial" x="46.0" y="25.0">q</tspan><tspan textLength="8.5" style="font-family:Monaspace Radon,PingFang SC,Mircrosoft YaHei,Arial;font-size:10.40pt" x="59.5" y="29.2">2</tspan></text></g><g id="shape5" transform="translate(736.000000,246.000000)"><path stroke-width="1" fill="#ffffff" fill-rule="nonzero" stroke="#101843" d="M114.0,38.0L114.0,.0L.0,.0L.0,38.0L114.0,38.0z"/><text xml:space="preserve" style="fill:#191919;font-family:微软雅黑,PingFang SC,Mircrosoft YaHei,Arial;font-size:16.00pt"><tspan style="font-family:微软雅黑,PingFang SC,Mircrosoft YaHei,Arial" x="49.5" y="26.0">...</tspan></text></g><g id="shape6" transform="translate(736.000000,284.000000)"><path stroke-width="1" fill="#ffffff" fill-rule="nonzero" stroke="#101843" d="M114.0,38.0L114.0,.0L.0,.0L.0,38.0L114.0,38.0z"/><text xml:space="preserve" style="fill:#191919;font-family:Monaspace Radon,PingFang SC,Mircrosoft YaHei,Arial;font-size:16.00pt"><tspan style="font-family:Monaspace Radon,PingFang SC,Mircrosoft YaHei,Arial" x="37.5" y="25.0">q</tspan><tspan textLength="25.5" style="font-family:Monaspace Radon,PingFang SC,Mircrosoft YaHei,Arial;font-size:10.40pt" x="51.0" y="29.2">s-1</tspan></text></g><g id="shape7" transform="translate(594.000000,244.513443)"><path stroke-width="1" fill="#ffffff" fill-rule="nonzero" stroke="#101843" d="M114.0,38.0L114.0,.0L.0,.0L.0,38.0L114.0,38.0z"/><text xml:space="preserve" style="fill:#191919;font-family:Monaspace Radon,PingFang SC,Mircrosoft YaHei,Arial;font-size:16.00pt"><tspan style="font-family:Monaspace Radon,PingFang SC,Mircrosoft YaHei,Arial" x="46.0" y="25.0">v</tspan><tspan textLength="8.5" style="font-family:Monaspace Radon,PingFang SC,Mircrosoft YaHei,Arial;font-size:10.40pt" x="59.5" y="29.2">0</tspan></text></g><g id="shape8" transform="translate(594.000000,282.513443)"><path stroke-width="1" fill="#ffffff" fill-rule="nonzero" stroke="#101843" d="M114.0,38.0L114.0,.0L.0,.0L.0,38.0L114.0,38.0z"/><text xml:space="preserve" style="fill:#191919;font-family:Monaspace Radon,PingFang SC,Mircrosoft YaHei,Arial;font-size:16.00pt"><tspan style="font-family:Monaspace Radon,PingFang SC,Mircrosoft YaHei,Arial" x="46.0" y="25.0">v</tspan><tspan textLength="8.5" style="font-family:Monaspace Radon,PingFang SC,Mircrosoft YaHei,Arial;font-size:10.40pt" x="59.5" y="29.2">1</tspan></text></g><g id="shape9" transform="translate(594.000000,320.513443)"><path stroke-width="1" fill="#ffffff" fill-rule="nonzero" stroke="#101843" d="M114.0,38.0L114.0,.0L.0,.0L.0,38.0L114.0,38.0z"/><text xml:space="preserve" style="fill:#191919;font-family:Monaspace Radon,PingFang SC,Mircrosoft YaHei,Arial;font-size:16.00pt"><tspan style="font-family:Monaspace Radon,PingFang SC,Mircrosoft YaHei,Arial" x="46.0" y="25.0">v</tspan><tspan textLength="8.5" style="font-family:Monaspace Radon,PingFang SC,Mircrosoft YaHei,Arial;font-size:10.40pt" x="59.5" y="29.2">2</tspan></text></g><g id="shape10" transform="translate(594.000000,358.513443)"><path stroke-width="1" fill="#ffffff" fill-rule="nonzero" stroke="#101843" d="M114.0,38.0L114.0,.0L.0,.0L.0,38.0L114.0,38.0z"/><text xml:space="preserve" style="fill:#191919;font-family:微软雅黑,PingFang SC,Mircrosoft YaHei,Arial;font-size:16.00pt"><tspan style="font-family:微软雅黑,PingFang SC,Mircrosoft YaHei,Arial" x="49.5" y="26.0">...</tspan></text></g><g id="shape11" transform="translate(594.000000,396.513443)"><path stroke-width="1" fill="#ffffff" fill-rule="nonzero" stroke="#101843" d="M114.0,38.0L114.0,.0L.0,.0L.0,38.0L114.0,38.0z"/><text xml:space="preserve" style="fill:#191919;font-family:Monaspace Radon,PingFang SC,Mircrosoft YaHei,Arial;font-size:16.00pt"><tspan style="font-family:Monaspace Radon,PingFang SC,Mircrosoft YaHei,Arial" x="37.5" y="25.0">v</tspan><tspan textLength="25.5" style="font-family:Monaspace Radon,PingFang SC,Mircrosoft YaHei,Arial;font-size:10.40pt" x="51.0" y="29.2">b-1</tspan></text></g><g id="shape12" transform="translate(368.000000,465.513243)"><path stroke-width="1" fill="#ffffff" fill-rule="nonzero" stroke="#101843" d="M114.0,38.0L114.0,.0L.0,.0L.0,38.0L114.0,38.0z"/><text xml:space="preserve" style="fill:#191919;font-family:微软雅黑,PingFang SC,Mircrosoft YaHei,Arial;font-size:16.00pt"><tspan style="font-family:微软雅黑,PingFang SC,Mircrosoft YaHei,Arial" x="47.3" y="26.0">v</tspan><tspan textLength="8.0" style="font-family:微软雅黑,PingFang SC,Mircrosoft YaHei,Arial;font-size:10.40pt" x="58.8" y="30.6">0</tspan></text></g><g id="shape13" transform="translate(368.000000,503.513243)"><path stroke-width="1" fill="#ffffff" fill-rule="nonzero" stroke="#101843" d="M114.0,38.0L114.0,.0L.0,.0L.0,38.0L114.0,38.0z"/><text xml:space="preserve" style="fill:#191919;font-family:微软雅黑,PingFang SC,Mircrosoft YaHei,Arial;font-size:16.00pt"><tspan style="font-family:微软雅黑,PingFang SC,Mircrosoft YaHei,Arial" x="47.3" y="26.0">v</tspan><tspan textLength="8.0" style="font-family:微软雅黑,PingFang SC,Mircrosoft YaHei,Arial;font-size:10.40pt" x="58.8" y="30.6">1</tspan></text></g><g id="shape14" transform="translate(368.000000,541.513243)"><path stroke-width="1" fill="#ffffff" fill-rule="nonzero" stroke="#101843" d="M114.0,38.0L114.0,.0L.0,.0L.0,38.0L114.0,38.0z"/><text xml:space="preserve" style="fill:#191919;font-family:微软雅黑,PingFang SC,Mircrosoft YaHei,Arial;font-size:16.00pt"><tspan style="font-family:微软雅黑,PingFang SC,Mircrosoft YaHei,Arial" x="47.3" y="26.0">v</tspan><tspan textLength="8.0" style="font-family:微软雅黑,PingFang SC,Mircrosoft YaHei,Arial;font-size:10.40pt" x="58.8" y="30.6">2</tspan></text></g><g id="shape15" transform="translate(368.000000,579.513243)"><path stroke-width="1" fill="#ffffff" fill-rule="nonzero" stroke="#101843" d="M114.0,38.0L114.0,.0L.0,.0L.0,38.0L114.0,38.0z"/><text xml:space="preserve" style="fill:#191919;font-family:微软雅黑,PingFang SC,Mircrosoft YaHei,Arial;font-size:16.00pt"><tspan style="font-family:微软雅黑,PingFang SC,Mircrosoft YaHei,Arial" x="49.5" y="26.0">...</tspan></text></g><g id="shape16" transform="translate(368.000000,617.513243)"><path stroke-width="1" fill="#ffffff" fill-rule="nonzero" stroke="#101843" d="M114.0,38.0L114.0,.0L.0,.0L.0,38.0L114.0,38.0z"/><text xml:space="preserve" style="fill:#191919;font-family:微软雅黑,PingFang SC,Mircrosoft YaHei,Arial;font-size:16.00pt"><tspan style="font-family:微软雅黑,PingFang SC,Mircrosoft YaHei,Arial" x="40.0" y="26.0">v</tspan><tspan textLength="22.5" style="font-family:微软雅黑,PingFang SC,Mircrosoft YaHei,Arial;font-size:10.40pt" x="51.5" y="30.6">b-1</tspan></text></g><g id="shape17" transform="translate(411.831067,477.299213)"><path stroke-width="1" fill="#ffffff" fill-rule="nonzero" stroke="#101843" d="M114.0,38.0L114.0,.0L.0,.0L.0,38.0L114.0,38.0z"/><text xml:space="preserve" style="fill:#191919;font-family:微软雅黑,PingFang SC,Mircrosoft YaHei,Arial;font-size:16.00pt"><tspan style="font-family:微软雅黑,PingFang SC,Mircrosoft YaHei,Arial" x="47.3" y="26.0">v</tspan><tspan textLength="8.0" style="font-family:微软雅黑,PingFang SC,Mircrosoft YaHei,Arial;font-size:10.40pt" x="58.8" y="30.6">0</tspan></text></g><g id="shape18" transform="translate(411.831067,515.299213)"><path stroke-width="1" fill="#ffffff" fill-rule="nonzero" stroke="#101843" d="M114.0,38.0L114.0,.0L.0,.0L.0,38.0L114.0,38.0z"/><text xml:space="preserve" style="fill:#191919;font-family:微软雅黑,PingFang SC,Mircrosoft YaHei,Arial;font-size:16.00pt"><tspan style="font-family:微软雅黑,PingFang SC,Mircrosoft YaHei,Arial" x="47.3" y="26.0">v</tspan><tspan textLength="8.0" style="font-family:微软雅黑,PingFang SC,Mircrosoft YaHei,Arial;font-size:10.40pt" x="58.8" y="30.6">1</tspan></text></g><g id="shape19" transform="translate(411.831067,553.299213)"><path stroke-width="1" fill="#ffffff" fill-rule="nonzero" stroke="#101843" d="M114.0,38.0L114.0,.0L.0,.0L.0,38.0L114.0,38.0z"/><text xml:space="preserve" style="fill:#191919;font-family:微软雅黑,PingFang SC,Mircrosoft YaHei,Arial;font-size:16.00pt"><tspan style="font-family:微软雅黑,PingFang SC,Mircrosoft YaHei,Arial" x="47.3" y="26.0">v</tspan><tspan textLength="8.0" style="font-family:微软雅黑,PingFang SC,Mircrosoft YaHei,Arial;font-size:10.40pt" x="58.8" y="30.6">2</tspan></text></g><g id="shape20" transform="translate(411.831067,591.299213)"><path stroke-width="1" fill="#ffffff" fill-rule="nonzero" stroke="#101843" d="M114.0,38.0L114.0,.0L.0,.0L.0,38.0L114.0,38.0z"/><text xml:space="preserve" style="fill:#191919;font-family:微软雅黑,PingFang SC,Mircrosoft YaHei,Arial;font-size:16.00pt"><tspan style="font-family:微软雅黑,PingFang SC,Mircrosoft YaHei,Arial" x="49.5" y="26.0">...</tspan></text></g><g id="shape21" transform="translate(411.831067,629.299213)"><path stroke-width="1" fill="#ffffff" fill-rule="nonzero" stroke="#101843" d="M114.0,38.0L114.0,.0L.0,.0L.0,38.0L114.0,38.0z"/><text xml:space="preserve" style="fill:#191919;font-family:微软雅黑,PingFang SC,Mircrosoft YaHei,Arial;font-size:16.00pt"><tspan style="font-family:微软雅黑,PingFang SC,Mircrosoft YaHei,Arial" x="40.0" y="26.0">v</tspan><tspan textLength="22.5" style="font-family:微软雅黑,PingFang SC,Mircrosoft YaHei,Arial;font-size:10.40pt" x="51.5" y="30.6">b-1</tspan></text></g><g id="shape22" transform="translate(454.831067,492.299213)"><path stroke-width="1" fill="#ffffff" fill-rule="nonzero" stroke="#101843" d="M114.0,38.0L114.0,.0L.0,.0L.0,38.0L114.0,38.0z"/><text xml:space="preserve" style="fill:#191919;font-family:微软雅黑,PingFang SC,Mircrosoft YaHei,Arial;font-size:16.00pt"><tspan style="font-family:微软雅黑,PingFang SC,Mircrosoft YaHei,Arial" x="47.3" y="26.0">v</tspan><tspan textLength="8.0" style="font-family:微软雅黑,PingFang SC,Mircrosoft YaHei,Arial;font-size:10.40pt" x="58.8" y="30.6">0</tspan></text></g><g id="shape23" transform="translate(454.831067,530.299213)"><path stroke-width="1" fill="#ffffff" fill-rule="nonzero" stroke="#101843" d="M114.0,38.0L114.0,.0L.0,.0L.0,38.0L114.0,38.0z"/><text xml:space="preserve" style="fill:#191919;font-family:微软雅黑,PingFang SC,Mircrosoft YaHei,Arial;font-size:16.00pt"><tspan style="font-family:微软雅黑,PingFang SC,Mircrosoft YaHei,Arial" x="47.3" y="26.0">v</tspan><tspan textLength="8.0" style="font-family:微软雅黑,PingFang SC,Mircrosoft YaHei,Arial;font-size:10.40pt" x="58.8" y="30.6">1</tspan></text></g><g id="shape24" transform="translate(454.831067,568.299213)"><path stroke-width="1" fill="#ffffff" fill-rule="nonzero" stroke="#101843" d="M114.0,38.0L114.0,.0L.0,.0L.0,38.0L114.0,38.0z"/><text xml:space="preserve" style="fill:#191919;font-family:微软雅黑,PingFang SC,Mircrosoft YaHei,Arial;font-size:16.00pt"><tspan style="font-family:微软雅黑,PingFang SC,Mircrosoft YaHei,Arial" x="47.3" y="26.0">v</tspan><tspan textLength="8.0" style="font-family:微软雅黑,PingFang SC,Mircrosoft YaHei,Arial;font-size:10.40pt" x="58.8" y="30.6">2</tspan></text></g><g id="shape25" transform="translate(454.831067,606.299213)"><path stroke-width="1" fill="#ffffff" fill-rule="nonzero" stroke="#101843" d="M114.0,38.0L114.0,.0L.0,.0L.0,38.0L114.0,38.0z"/><text xml:space="preserve" style="fill:#191919;font-family:微软雅黑,PingFang SC,Mircrosoft YaHei,Arial;font-size:16.00pt"><tspan style="font-family:微软雅黑,PingFang SC,Mircrosoft YaHei,Arial" x="49.5" y="26.0">...</tspan></text></g><g id="shape26" transform="translate(454.831067,644.299213)"><path stroke-width="1" fill="#ffffff" fill-rule="nonzero" stroke="#101843" d="M114.0,38.0L114.0,.0L.0,.0L.0,38.0L114.0,38.0z"/><text xml:space="preserve" style="fill:#191919;font-family:微软雅黑,PingFang SC,Mircrosoft YaHei,Arial;font-size:16.00pt"><tspan style="font-family:微软雅黑,PingFang SC,Mircrosoft YaHei,Arial" x="40.0" y="26.0">v</tspan><tspan textLength="22.5" style="font-family:微软雅黑,PingFang SC,Mircrosoft YaHei,Arial;font-size:10.40pt" x="51.5" y="30.6">b-1</tspan></text></g><g id="shape27" transform="translate(500.831067,503.513243)"><path stroke-width="1" fill="#ffffff" fill-rule="nonzero" stroke="#101843" d="M114.0,38.0L114.0,.0L.0,.0L.0,38.0L114.0,38.0z"/><text xml:space="preserve" style="fill:#191919;font-family:Monaspace Radon,PingFang SC,Mircrosoft YaHei,Arial;font-size:16.00pt"><tspan style="font-family:Monaspace Radon,PingFang SC,Mircrosoft YaHei,Arial" x="20.5" y="25.0">v</tspan><tspan textLength="59.5" style="font-family:Monaspace Radon,PingFang SC,Mircrosoft YaHei,Arial;font-size:10.40pt" x="34.0" y="29.2">(t-1)*b</tspan></text></g><g id="shape28" transform="translate(500.831067,541.513243)"><path stroke-width="1" fill="#ffffff" fill-rule="nonzero" stroke="#101843" d="M114.0,38.0L114.0,.0L.0,.0L.0,38.0L114.0,38.0z"/><text xml:space="preserve" style="fill:#191919;font-family:Monaspace Radon,PingFang SC,Mircrosoft YaHei,Arial;font-size:16.00pt"><tspan style="font-family:Monaspace Radon,PingFang SC,Mircrosoft YaHei,Arial" x="12.0" y="25.0">v</tspan><tspan textLength="76.5" style="font-family:Monaspace Radon,PingFang SC,Mircrosoft YaHei,Arial;font-size:10.40pt" x="25.5" y="29.2">(t-1)*b+1</tspan></text></g><g id="shape29" transform="translate(500.831067,579.513243)"><path stroke-width="1" fill="#ffffff" fill-rule="nonzero" stroke="#101843" d="M114.0,38.0L114.0,.0L.0,.0L.0,38.0L114.0,38.0z"/><text xml:space="preserve" style="fill:#191919;font-family:Monaspace Radon,PingFang SC,Mircrosoft YaHei,Arial;font-size:16.00pt"><tspan textLength="25.5" style="font-family:Monaspace Radon,PingFang SC,Mircrosoft YaHei,Arial;font-size:10.40pt" x="44.3" y="29.2">...</tspan></text></g><g id="shape30" transform="translate(500.831067,617.513243)"><path stroke-width="1" fill="#ffffff" fill-rule="nonzero" stroke="#101843" d="M114.0,38.0L114.0,.0L.0,.0L.0,38.0L114.0,38.0z"/><text xml:space="preserve" style="fill:#191919;font-family:微软雅黑,PingFang SC,Mircrosoft YaHei,Arial;font-size:16.00pt"><tspan style="font-family:微软雅黑,PingFang SC,Mircrosoft YaHei,Arial" x="49.5" y="26.0">...</tspan></text></g><g id="shape31" transform="translate(500.831067,656.727273)"><path stroke-width="1" fill="#ffffff" fill-rule="nonzero" stroke="#101843" d="M114.0,38.0L114.0,.0L.0,.0L.0,38.0L114.0,38.0z"/><text xml:space="preserve" style="fill:#191919;font-family:Monaspace Radon,PingFang SC,Mircrosoft YaHei,Arial;font-size:16.00pt"><tspan style="font-family:Monaspace Radon,PingFang SC,Mircrosoft YaHei,Arial" x="29.0" y="25.0">v</tspan><tspan textLength="42.5" style="font-family:Monaspace Radon,PingFang SC,Mircrosoft YaHei,Arial;font-size:10.40pt" x="42.5" y="29.2">t*b-1</tspan></text></g><text stroke-width="1" id="shape32" fill="#004098" paint-order="stroke" transform="matrix(2.000000,0.000000,0.000000,2.000000,391.000000,326.641443)" stroke="#323232"><tspan style="font-family:Monaspace Radon,PingFang SC,Mircrosoft YaHei,Arial;font-size:24.00pt">cache</tspan></text><path stroke-width="2.666670083999634" id="shape33" fill="none" transform="matrix(0.000000,1.000000,-1.000000,0.000000,746.000000,144.513243)" stroke="#191919" d="M.0,.0C113.0,75.0,37.0,-76.0,151.0,.0"/><path stroke-width="1" id="shape34" fill="#ffffff" fill-rule="nonzero" transform="translate(736.000000,333.513243)" stroke="#101843" d="M114.0,38.0L114.0,.0L.0,.0L.0,38.0L114.0,38.0z"/><path stroke-width="1" id="shape35" fill="#ffffff" fill-rule="nonzero" transform="translate(736.000000,371.513443)" stroke="#101843" d="M114.0,38.0L114.0,.0L.0,.0L.0,38.0L114.0,38.0z"/><path stroke-width="1" id="shape36" fill="#ffffff" fill-rule="nonzero" transform="translate(736.000000,409.513443)" stroke="#101843" d="M114.0,38.0L114.0,.0L.0,.0L.0,38.0L114.0,38.0z"/><path stroke-width="1" id="shape37" fill="#ffffff" fill-rule="nonzero" transform="translate(736.000000,447.513443)" stroke="#101843" d="M114.0,38.0L114.0,.0L.0,.0L.0,38.0L114.0,38.0z"/><path stroke-width="1" id="shape38" fill="#ffffff" fill-rule="nonzero" transform="translate(736.000000,485.513443)" stroke="#101843" d="M114.0,38.0L114.0,.0L.0,.0L.0,38.0L114.0,38.0z"/><path stroke-width="2.666670083999634" id="shape39" fill="none" transform="matrix(0.000000,1.000000,-1.000000,0.000000,746.000000,346.026443)" stroke="#191919" d="M.0,.0C113.0,75.0,37.0,-76.0,151.0,.0"/><path stroke-width="1" id="shape40" fill="#ffffff" fill-rule="nonzero" transform="translate(736.000000,542.727273)" stroke="#101843" d="M114.0,38.0L114.0,.0L.0,.0L.0,38.0L114.0,38.0z"/><path stroke-width="1" id="shape41" fill="#ffffff" fill-rule="nonzero" transform="translate(736.000000,580.727273)" stroke="#101843" d="M114.0,38.0L114.0,.0L.0,.0L.0,38.0L114.0,38.0z"/><path stroke-width="1" id="shape42" fill="#ffffff" fill-rule="nonzero" transform="translate(736.000000,618.727273)" stroke="#101843" d="M114.0,38.0L114.0,.0L.0,.0L.0,38.0L114.0,38.0z"/><path stroke-width="1" id="shape43" fill="#ffffff" fill-rule="nonzero" transform="translate(736.000000,656.727273)" stroke="#101843" d="M114.0,38.0L114.0,.0L.0,.0L.0,38.0L114.0,38.0z"/><path stroke-width="1" id="shape44" fill="#ffffff" fill-rule="nonzero" transform="translate(736.000000,694.727273)" stroke="#101843" d="M114.0,38.0L114.0,.0L.0,.0L.0,38.0L114.0,38.0z"/><path stroke-width="2.666670083999634" id="shape45" fill="none" transform="matrix(0.000000,1.000000,-1.000000,0.000000,746.000000,555.240273)" stroke="#191919" d="M.0,.0C113.0,75.0,37.0,-76.0,151.0,.0"/><text stroke-width="1" id="shape46" fill="#004098" paint-order="stroke" transform="matrix(2.072784,0.000000,0.000000,2.047619,565.279554,187.146500)" stroke="#323232"><tspan style="font-family:Monaspace Radon,PingFang SC,Mircrosoft YaHei,Arial;font-size:16.00pt">thread</tspan></text><text stroke-width="1" id="shape47" fill="#004098" paint-order="stroke" transform="matrix(2.074504,0.000000,0.000000,2.047619,367.722175,607.509587)" stroke="#323232"><tspan style="font-family:Monaspace Radon,PingFang SC,Mircrosoft YaHei,Arial;font-size:16.00pt">in-memory</tspan></text></g></svg>