<svg xmlns="http://www.w3.org/2000/svg" width="382" xmlns:xlink="http://www.w3.org/1999/xlink" height="281" viewBox="0 0 382 281"><defs/><g transform="translate(-737.00,-527.94)"><path stroke-width="1" id="shape1" fill="#ffffff" fill-rule="nonzero" transform="translate(983.402700,609.939679)" stroke="#101843" d="M.0,60.0C.0,26.9,26.9,.0,60.0,.0C93.1,.0,120.0,26.9,120.0,60.0C120.0,93.1,93.1,120.0,60.0,120.0C26.9,120.0,.0,93.1,.0,60.0z"/><path stroke-width="1" id="shape2" fill="#ffffff" fill-rule="nonzero" transform="translate(869.652700,528.939679)" stroke="#101843" d="M.0,69.8C.0,31.2,31.2,.0,69.8,.0C108.3,.0,139.5,31.2,139.5,69.8C139.5,108.3,108.3,139.5,69.8,139.5C31.2,139.5,.0,108.3,.0,69.8z"/><path stroke-width="1" id="shape3" fill="#ffffff" fill-rule="nonzero" transform="translate(748.652700,659.939679)" stroke="#101843" d="M.0,73.9C.0,33.1,33.1,.0,73.9,.0C114.7,.0,147.8,33.1,147.8,73.9C147.8,114.7,114.7,147.8,73.9,147.8C33.1,147.8,.0,114.7,.0,73.9z"/><path stroke-width="1" id="shape4" fill="#ffffff" fill-rule="nonzero" transform="translate(759.402700,697.939679)" stroke="#101843" d="M.0,10.0C.0,4.5,4.5,.0,10.0,.0C15.5,.0,20.0,4.5,20.0,10.0C20.0,15.5,15.5,20.0,10.0,20.0C4.5,20.0,.0,15.5,.0,10.0z"/><path stroke-width="1" id="shape5" fill="#ffffff" fill-rule="nonzero" transform="translate(873.162700,735.939679)" stroke="#101843" d="M.0,10.0C.0,4.5,4.5,.0,10.0,.0C15.5,.0,20.0,4.5,20.0,10.0C20.0,15.5,15.5,20.0,10.0,20.0C4.5,20.0,.0,15.5,.0,10.0z"/><path stroke-width="1" id="shape6" fill="#ffffff" fill-rule="nonzero" transform="translate(787.402700,773.939679)" stroke="#101843" d="M.0,10.0C.0,4.5,4.5,.0,10.0,.0C15.5,.0,20.0,4.5,20.0,10.0C20.0,15.5,15.5,20.0,10.0,20.0C4.5,20.0,.0,15.5,.0,10.0z"/><path stroke-width="1" id="shape7" fill="#ffffff" fill-rule="nonzero" transform="translate(1061.402700,697.939679)" stroke="#101843" d="M.0,10.0C.0,4.5,4.5,.0,10.0,.0C15.5,.0,20.0,4.5,20.0,10.0C20.0,15.5,15.5,20.0,10.0,20.0C4.5,20.0,.0,15.5,.0,10.0z"/><path stroke-width="1" id="shape8" fill="#ffffff" fill-rule="nonzero" transform="translate(873.162700,584.939679)" stroke="#101843" d="M.0,10.0C.0,4.5,4.5,.0,10.0,.0C15.5,.0,20.0,4.5,20.0,10.0C20.0,15.5,15.5,20.0,10.0,20.0C4.5,20.0,.0,15.5,.0,10.0z"/><path stroke-width="1" id="shape9" fill="#ffffff" fill-rule="nonzero" transform="translate(986.402700,659.939679)" stroke="#101843" d="M.0,10.0C.0,4.5,4.5,.0,10.0,.0C15.5,.0,20.0,4.5,20.0,10.0C20.0,15.5,15.5,20.0,10.0,20.0C4.5,20.0,.0,15.5,.0,10.0z"/><path stroke-width="1" id="shape10" fill="#ffffff" fill-rule="nonzero" transform="translate(1061.402700,622.939679)" stroke="#101843" d="M.0,10.0C.0,4.5,4.5,.0,10.0,.0C15.5,.0,20.0,4.5,20.0,10.0C20.0,15.5,15.5,20.0,10.0,20.0C4.5,20.0,.0,15.5,.0,10.0z"/><path stroke-width="1" id="shape11" fill="#ffffff" fill-rule="nonzero" transform="translate(910.402700,640.939679)" stroke="#101843" d="M.0,10.0C.0,4.5,4.5,.0,10.0,.0C15.5,.0,20.0,4.5,20.0,10.0C20.0,15.5,15.5,20.0,10.0,20.0C4.5,20.0,.0,15.5,.0,10.0z"/><g id="shape12" transform="translate(967.402700,546.939679)"><path stroke-width="1" fill="#ffffff" fill-rule="nonzero" stroke="#101843" d="M.0,10.0C.0,4.5,4.5,.0,10.0,.0C15.5,.0,20.0,4.5,20.0,10.0C20.0,15.5,15.5,20.0,10.0,20.0C4.5,20.0,.0,15.5,.0,10.0z"/><text xml:space="preserve" style="fill:#191919;font-family:微软雅黑,PingFang SC,Mircrosoft YaHei,Arial;font-size:10.00pt"><tspan style="font-family:微软雅黑,PingFang SC,Mircrosoft YaHei,Arial" x="3.5" y="37.5">v6</tspan></text></g><g id="shape13" transform="translate(737.402700,696.439679)"><text xml:space="preserve" style="fill:#191919;font-family:微软雅黑,PingFang SC,Mircrosoft YaHei,Arial;font-size:10.00pt"><tspan style="font-family:微软雅黑,PingFang SC,Mircrosoft YaHei,Arial" x="52.5" y="24.0">v1</tspan></text></g><g id="shape14" transform="translate(756.402700,748.439679)"><text xml:space="preserve" style="fill:#191919;font-family:微软雅黑,PingFang SC,Mircrosoft YaHei,Arial;font-size:10.00pt"><tspan style="font-family:微软雅黑,PingFang SC,Mircrosoft YaHei,Arial" x="52.5" y="24.0">v2</tspan></text></g><g id="shape15" transform="translate(822.402700,696.439679)"><text xml:space="preserve" style="fill:#191919;font-family:微软雅黑,PingFang SC,Mircrosoft YaHei,Arial;font-size:10.00pt"><tspan style="font-family:微软雅黑,PingFang SC,Mircrosoft YaHei,Arial" x="52.5" y="24.0">v3</tspan></text></g><g id="shape16" transform="translate(850.402700,587.439679)"><text xml:space="preserve" style="fill:#191919;font-family:微软雅黑,PingFang SC,Mircrosoft YaHei,Arial;font-size:10.00pt"><tspan style="font-family:微软雅黑,PingFang SC,Mircrosoft YaHei,Arial" x="52.5" y="24.0">v4</tspan></text></g><g id="shape17" transform="translate(879.402700,620.439679)"><text xml:space="preserve" style="fill:#191919;font-family:微软雅黑,PingFang SC,Mircrosoft YaHei,Arial;font-size:10.00pt"><tspan style="font-family:微软雅黑,PingFang SC,Mircrosoft YaHei,Arial" x="52.5" y="24.0">v5</tspan></text></g><g id="shape18" transform="translate(945.402700,629.439679)"><text xml:space="preserve" style="fill:#191919;font-family:微软雅黑,PingFang SC,Mircrosoft YaHei,Arial;font-size:10.00pt"><tspan style="font-family:微软雅黑,PingFang SC,Mircrosoft YaHei,Arial" x="52.5" y="24.0">v7</tspan></text></g><g id="shape19" transform="translate(989.402700,599.939679)"><text xml:space="preserve" style="fill:#191919;font-family:微软雅黑,PingFang SC,Mircrosoft YaHei,Arial;font-size:10.00pt"><tspan style="font-family:微软雅黑,PingFang SC,Mircrosoft YaHei,Arial" x="52.5" y="24.0">v8</tspan></text></g><g id="shape20" transform="translate(983.402700,705.439679)"><text xml:space="preserve" style="fill:#191919;font-family:微软雅黑,PingFang SC,Mircrosoft YaHei,Arial;font-size:10.00pt"><tspan style="font-family:微软雅黑,PingFang SC,Mircrosoft YaHei,Arial" x="52.5" y="24.0">v9</tspan></text></g><path id="shape21" fill="#000000" fill-rule="nonzero" transform="translate(814.290000,725.576979)" d="M16.5,8.2C16.5,12.8,12.8,16.5,8.2,16.5C3.7,16.5,.0,12.8,.0,8.2C.0,3.7,3.7,.0,8.2,.0C12.8,.0,16.5,3.7,16.5,8.2z"/><path id="shape22" fill="#000000" fill-rule="nonzero" transform="translate(931.165000,590.451979)" d="M16.5,8.2C16.5,12.8,12.8,16.5,8.2,16.5C3.7,16.5,.0,12.8,.0,8.2C.0,3.7,3.7,.0,8.2,.0C12.8,.0,16.5,3.7,16.5,8.2z"/><path id="shape23" fill="#000000" fill-rule="nonzero" transform="translate(1035.165000,661.701979)" d="M16.5,8.2C16.5,12.8,12.8,16.5,8.2,16.5C3.7,16.5,.0,12.8,.0,8.2C.0,3.7,3.7,.0,8.2,.0C12.8,.0,16.5,3.7,16.5,8.2z"/><g id="shape24" transform="translate(773.162700,697.939679)"><text xml:space="preserve" style="fill:#ff0000;font-family:微软雅黑,PingFang SC,Mircrosoft YaHei,Arial;font-size:10.00pt"><tspan style="font-family:微软雅黑,PingFang SC,Mircrosoft YaHei,Arial" x="52.5" y="24.0">c1</tspan></text></g><g id="shape25" transform="translate(893.162700,587.439679)"><text xml:space="preserve" style="fill:#ff0000;font-family:微软雅黑,PingFang SC,Mircrosoft YaHei,Arial;font-size:10.00pt"><tspan style="font-family:微软雅黑,PingFang SC,Mircrosoft YaHei,Arial" x="52.5" y="24.0">c2</tspan></text></g><g id="shape26" transform="translate(999.402700,648.439679)"><text xml:space="preserve" style="fill:#ff0000;font-family:微软雅黑,PingFang SC,Mircrosoft YaHei,Arial;font-size:10.00pt"><tspan style="font-family:微软雅黑,PingFang SC,Mircrosoft YaHei,Arial" x="52.5" y="24.0">c3</tspan></text></g></g></svg>