<svg xmlns="http://www.w3.org/2000/svg" width="382" xmlns:xlink="http://www.w3.org/1999/xlink" height="301" viewBox="0 0 382 301"><defs/><g transform="translate(-384.00,-139.50)"><path stroke-width="1" id="shape1" fill="#ffffff" fill-rule="nonzero" transform="translate(630.000000,242.000000)" stroke="#101843" d="M.0,60.0C.0,26.9,26.9,.0,60.0,.0C93.1,.0,120.0,26.9,120.0,60.0C120.0,93.1,93.1,120.0,60.0,120.0C26.9,120.0,.0,93.1,.0,60.0z"/><path stroke-width="1" id="shape2" fill="#ffffff" fill-rule="nonzero" transform="translate(516.250000,161.000000)" stroke="#101843" d="M.0,69.8C.0,31.2,31.2,.0,69.8,.0C108.3,.0,139.5,31.2,139.5,69.8C139.5,108.3,108.3,139.5,69.8,139.5C31.2,139.5,.0,108.3,.0,69.8z"/><path stroke-width="1" id="shape3" fill="#ffffff" fill-rule="nonzero" transform="translate(395.250000,292.000000)" stroke="#101843" d="M.0,73.9C.0,33.1,33.1,.0,73.9,.0C114.7,.0,147.8,33.1,147.8,73.9C147.8,114.7,114.7,147.8,73.9,147.8C33.1,147.8,.0,114.7,.0,73.9z"/><path stroke-width="1" id="shape4" fill="#004098" fill-rule="nonzero" transform="translate(444.000000,292.000000)" stroke="#2d3c91" d="M.0,10.0C.0,4.5,4.5,.0,10.0,.0C15.5,.0,20.0,4.5,20.0,10.0C20.0,15.5,15.5,20.0,10.0,20.0C4.5,20.0,.0,15.5,.0,10.0z"/><path stroke-width="1" id="shape5" fill="#004098" fill-rule="nonzero" transform="translate(557.000000,179.000000)" stroke="#2d3c91" d="M.0,10.0C.0,4.5,4.5,.0,10.0,.0C15.5,.0,20.0,4.5,20.0,10.0C20.0,15.5,15.5,20.0,10.0,20.0C4.5,20.0,.0,15.5,.0,10.0z"/><path stroke-width="1" id="shape6" fill="#004098" fill-rule="nonzero" transform="translate(633.000000,406.000000)" stroke="#2d3c91" d="M.0,10.0C.0,4.5,4.5,.0,10.0,.0C15.5,.0,20.0,4.5,20.0,10.0C20.0,15.5,15.5,20.0,10.0,20.0C4.5,20.0,.0,15.5,.0,10.0z"/><path stroke-width="1" id="shape7" fill="#ffffff" fill-rule="nonzero" transform="translate(406.000000,330.000000)" stroke="#101843" d="M.0,10.0C.0,4.5,4.5,.0,10.0,.0C15.5,.0,20.0,4.5,20.0,10.0C20.0,15.5,15.5,20.0,10.0,20.0C4.5,20.0,.0,15.5,.0,10.0z"/><path stroke-width="1" id="shape8" fill="#ffffff" fill-rule="nonzero" transform="translate(519.759843,368.000000)" stroke="#101843" d="M.0,10.0C.0,4.5,4.5,.0,10.0,.0C15.5,.0,20.0,4.5,20.0,10.0C20.0,15.5,15.5,20.0,10.0,20.0C4.5,20.0,.0,15.5,.0,10.0z"/><path stroke-width="1" id="shape9" fill="#ffffff" fill-rule="nonzero" transform="translate(434.000000,406.000000)" stroke="#101843" d="M.0,10.0C.0,4.5,4.5,.0,10.0,.0C15.5,.0,20.0,4.5,20.0,10.0C20.0,15.5,15.5,20.0,10.0,20.0C4.5,20.0,.0,15.5,.0,10.0z"/><path stroke-width="1" id="shape10" fill="#ffffff" fill-rule="nonzero" transform="translate(708.000000,330.000000)" stroke="#101843" d="M.0,10.0C.0,4.5,4.5,.0,10.0,.0C15.5,.0,20.0,4.5,20.0,10.0C20.0,15.5,15.5,20.0,10.0,20.0C4.5,20.0,.0,15.5,.0,10.0z"/><path stroke-width="1" id="shape11" fill="#ffffff" fill-rule="nonzero" transform="translate(519.759843,217.000000)" stroke="#101843" d="M.0,10.0C.0,4.5,4.5,.0,10.0,.0C15.5,.0,20.0,4.5,20.0,10.0C20.0,15.5,15.5,20.0,10.0,20.0C4.5,20.0,.0,15.5,.0,10.0z"/><path stroke-width="1" id="shape12" fill="#ffffff" fill-rule="nonzero" transform="translate(633.000000,292.000000)" stroke="#101843" d="M.0,10.0C.0,4.5,4.5,.0,10.0,.0C15.5,.0,20.0,4.5,20.0,10.0C20.0,15.5,15.5,20.0,10.0,20.0C4.5,20.0,.0,15.5,.0,10.0z"/><path stroke-width="1" id="shape13" fill="#ffffff" fill-rule="nonzero" transform="translate(708.000000,255.000000)" stroke="#101843" d="M.0,10.0C.0,4.5,4.5,.0,10.0,.0C15.5,.0,20.0,4.5,20.0,10.0C20.0,15.5,15.5,20.0,10.0,20.0C4.5,20.0,.0,15.5,.0,10.0z"/><path stroke-width="1" id="shape14" fill="#ffffff" fill-rule="nonzero" transform="translate(557.000000,273.000000)" stroke="#101843" d="M.0,10.0C.0,4.5,4.5,.0,10.0,.0C15.5,.0,20.0,4.5,20.0,10.0C20.0,15.5,15.5,20.0,10.0,20.0C4.5,20.0,.0,15.5,.0,10.0z"/><g id="shape15" transform="translate(614.000000,179.000000)"><path stroke-width="1" fill="#ffffff" fill-rule="nonzero" stroke="#101843" d="M.0,10.0C.0,4.5,4.5,.0,10.0,.0C15.5,.0,20.0,4.5,20.0,10.0C20.0,15.5,15.5,20.0,10.0,20.0C4.5,20.0,.0,15.5,.0,10.0z"/><text xml:space="preserve" style="fill:#191919;font-family:微软雅黑,PingFang SC,Mircrosoft YaHei,Arial;font-size:10.00pt"><tspan style="font-family:微软雅黑,PingFang SC,Mircrosoft YaHei,Arial" x="3.5" y="37.5">v6</tspan></text></g><g id="shape16" transform="translate(384.000000,257.500000)"><text xml:space="preserve" style="fill:#191919;font-family:微软雅黑,PingFang SC,Mircrosoft YaHei,Arial;font-size:10.00pt"><tspan style="font-family:微软雅黑,PingFang SC,Mircrosoft YaHei,Arial" x="51.8" y="24.0">q1</tspan></text></g><g id="shape17" transform="translate(488.000000,139.500000)"><text xml:space="preserve" style="fill:#191919;font-family:微软雅黑,PingFang SC,Mircrosoft YaHei,Arial;font-size:10.00pt"><tspan style="font-family:微软雅黑,PingFang SC,Mircrosoft YaHei,Arial" x="51.8" y="24.0">q2</tspan></text></g><g id="shape18" transform="translate(557.000000,394.500000)"><text xml:space="preserve" style="fill:#191919;font-family:微软雅黑,PingFang SC,Mircrosoft YaHei,Arial;font-size:10.00pt"><tspan style="font-family:微软雅黑,PingFang SC,Mircrosoft YaHei,Arial" x="51.8" y="24.0">q3</tspan></text></g><g id="shape19" transform="translate(384.000000,328.500000)"><text xml:space="preserve" style="fill:#191919;font-family:微软雅黑,PingFang SC,Mircrosoft YaHei,Arial;font-size:10.00pt"><tspan style="font-family:微软雅黑,PingFang SC,Mircrosoft YaHei,Arial" x="52.5" y="24.0">v1</tspan></text></g><g id="shape20" transform="translate(403.000000,380.500000)"><text xml:space="preserve" style="fill:#191919;font-family:微软雅黑,PingFang SC,Mircrosoft YaHei,Arial;font-size:10.00pt"><tspan style="font-family:微软雅黑,PingFang SC,Mircrosoft YaHei,Arial" x="52.5" y="24.0">v2</tspan></text></g><g id="shape21" transform="translate(469.000000,328.500000)"><text xml:space="preserve" style="fill:#191919;font-family:微软雅黑,PingFang SC,Mircrosoft YaHei,Arial;font-size:10.00pt"><tspan style="font-family:微软雅黑,PingFang SC,Mircrosoft YaHei,Arial" x="52.5" y="24.0">v3</tspan></text></g><g id="shape22" transform="translate(497.000000,219.500000)"><text xml:space="preserve" style="fill:#191919;font-family:微软雅黑,PingFang SC,Mircrosoft YaHei,Arial;font-size:10.00pt"><tspan style="font-family:微软雅黑,PingFang SC,Mircrosoft YaHei,Arial" x="52.5" y="24.0">v4</tspan></text></g><g id="shape23" transform="translate(526.000000,252.500000)"><text xml:space="preserve" style="fill:#191919;font-family:微软雅黑,PingFang SC,Mircrosoft YaHei,Arial;font-size:10.00pt"><tspan style="font-family:微软雅黑,PingFang SC,Mircrosoft YaHei,Arial" x="52.5" y="24.0">v5</tspan></text></g><g id="shape24" transform="translate(592.000000,261.500000)"><text xml:space="preserve" style="fill:#191919;font-family:微软雅黑,PingFang SC,Mircrosoft YaHei,Arial;font-size:10.00pt"><tspan style="font-family:微软雅黑,PingFang SC,Mircrosoft YaHei,Arial" x="52.5" y="24.0">v7</tspan></text></g><g id="shape25" transform="translate(636.000000,232.000000)"><text xml:space="preserve" style="fill:#191919;font-family:微软雅黑,PingFang SC,Mircrosoft YaHei,Arial;font-size:10.00pt"><tspan style="font-family:微软雅黑,PingFang SC,Mircrosoft YaHei,Arial" x="52.5" y="24.0">v8</tspan></text></g><g id="shape26" transform="translate(630.000000,337.500000)"><text xml:space="preserve" style="fill:#191919;font-family:微软雅黑,PingFang SC,Mircrosoft YaHei,Arial;font-size:10.00pt"><tspan style="font-family:微软雅黑,PingFang SC,Mircrosoft YaHei,Arial" x="52.5" y="24.0">v9</tspan></text></g><path id="shape27" fill="#000000" fill-rule="nonzero" transform="translate(460.887303,357.637303)" d="M16.5,8.2C16.5,12.8,12.8,16.5,8.2,16.5C3.7,16.5,.0,12.8,.0,8.2C.0,3.7,3.7,.0,8.2,.0C12.8,.0,16.5,3.7,16.5,8.2z"/><path id="shape28" fill="#000000" fill-rule="nonzero" transform="translate(577.762300,222.512300)" d="M16.5,8.2C16.5,12.8,12.8,16.5,8.2,16.5C3.7,16.5,.0,12.8,.0,8.2C.0,3.7,3.7,.0,8.2,.0C12.8,.0,16.5,3.7,16.5,8.2z"/><path id="shape29" fill="#000000" fill-rule="nonzero" transform="translate(681.762300,293.762300)" d="M16.5,8.2C16.5,12.8,12.8,16.5,8.2,16.5C3.7,16.5,.0,12.8,.0,8.2C.0,3.7,3.7,.0,8.2,.0C12.8,.0,16.5,3.7,16.5,8.2z"/><path stroke-width="1" stroke-dasharray="2,5" id="shape30" fill="none" transform="translate(454.000000,302.000000)" stroke="#191919" d="M.0,.0L15.1,55.6"/><path stroke-width="1" stroke-dasharray="2,5" id="shape31" fill="none" transform="translate(454.000000,300.000000)" stroke="#191919" d="M.0,.0L132.0,-69.0"/><path stroke-width="1" stroke-dasharray="2,5" id="shape32" fill="none" transform="translate(567.000000,189.000000)" stroke="#191919" d="M.0,.0L19.0,42.0"/><path stroke-width="1" stroke-dasharray="2,5" id="shape33" fill="none" transform="translate(567.000000,189.000000)" stroke="#191919" d="M.0,.0L127.0,113.0"/><path stroke-width="1" stroke-dasharray="2,5" id="shape34" fill="none" transform="translate(643.000000,416.000000)" stroke="#191919" d="M.0,.0L-171.0,-52.0"/><path stroke-width="1" stroke-dasharray="2,5" id="shape35" fill="none" transform="translate(643.000000,416.000000)" stroke="#191919" d="M.0,.0L47.0,-114.0"/><g id="shape36" transform="translate(419.759843,330.000000)"><text xml:space="preserve" style="fill:#ff0000;font-family:微软雅黑,PingFang SC,Mircrosoft YaHei,Arial;font-size:10.00pt"><tspan style="font-family:微软雅黑,PingFang SC,Mircrosoft YaHei,Arial" x="52.5" y="24.0">c1</tspan></text></g><g id="shape37" transform="translate(539.759843,219.500000)"><text xml:space="preserve" style="fill:#ff0000;font-family:微软雅黑,PingFang SC,Mircrosoft YaHei,Arial;font-size:10.00pt"><tspan style="font-family:微软雅黑,PingFang SC,Mircrosoft YaHei,Arial" x="52.5" y="24.0">c2</tspan></text></g><g id="shape38" transform="translate(646.000000,280.500000)"><text xml:space="preserve" style="fill:#ff0000;font-family:微软雅黑,PingFang SC,Mircrosoft YaHei,Arial;font-size:10.00pt"><tspan style="font-family:微软雅黑,PingFang SC,Mircrosoft YaHei,Arial" x="52.5" y="24.0">c3</tspan></text></g></g></svg>