<svg xmlns="http://www.w3.org/2000/svg" width="546" xmlns:xlink="http://www.w3.org/1999/xlink" height="618" viewBox="0 0 546 618"><defs/><g transform="translate(-321.51,-710.00)"><path stroke-width="2.666670083999634" stroke-dasharray="5.33334,13.3334" id="shape1" fill="#868686" fill-rule="nonzero" transform="translate(322.844343,854.700681)" stroke="#101843" d="M375.0,218.0L375.0,7.0C375.0,3.1,371.9,.0,368.0,.0L7.0,.0C3.1,.0,.0,3.1,.0,7.0L.0,218.0C.0,221.9,3.1,225.0,7.0,225.0L368.0,225.0C371.9,225.0,375.0,221.9,375.0,218.0z"/><path stroke-width="2.666670083999634" stroke-dasharray="29.3334,13.3334" id="shape2" fill="#ffffff" fill-rule="nonzero" transform="translate(529.000000,880.213681)" stroke="#00b050" d="M142.0,192.5L142.0,7.0C142.0,3.1,138.9,.0,135.0,.0L7.0,.0C3.1,.0,.0,3.1,.0,7.0L.0,192.5C.0,196.4,3.1,199.5,7.0,199.5L135.0,199.5C138.9,199.5,142.0,196.4,142.0,192.5z"/><path stroke-width="2.666670083999634" stroke-dasharray="29.3334,13.3334" id="shape3" fill="#ffffff" fill-rule="nonzero" transform="translate(536.891079,873.444181)" stroke="#004098" d="M142.0,192.5L142.0,7.0C142.0,3.1,138.9,.0,135.0,.0L7.0,.0C3.1,.0,.0,3.1,.0,7.0L.0,192.5C.0,196.4,3.1,199.5,7.0,199.5L135.0,199.5C138.9,199.5,142.0,196.4,142.0,192.5z"/><g id="shape4" transform="translate(740.733343,755.700787)"><path stroke-width="1" fill="#ffffff" fill-rule="nonzero" stroke="#101843" d="M114.0,38.0L114.0,.0L.0,.0L.0,38.0L114.0,38.0z"/><text xml:space="preserve" style="fill:#191919;font-family:Monaspace Radon,PingFang SC,Mircrosoft YaHei,Arial;font-size:16.00pt"><tspan style="font-family:Monaspace Radon,PingFang SC,Mircrosoft YaHei,Arial" x="46.0" y="25.0">v</tspan><tspan textLength="8.5" style="font-family:Monaspace Radon,PingFang SC,Mircrosoft YaHei,Arial;font-size:10.40pt" x="59.5" y="29.2">0</tspan></text></g><g id="shape5" transform="translate(740.733343,793.700787)"><path stroke-width="1" fill="#ffffff" fill-rule="nonzero" stroke="#101843" d="M114.0,38.0L114.0,.0L.0,.0L.0,38.0L114.0,38.0z"/><text xml:space="preserve" style="fill:#191919;font-family:Monaspace Radon,PingFang SC,Mircrosoft YaHei,Arial;font-size:16.00pt"><tspan style="font-family:Monaspace Radon,PingFang SC,Mircrosoft YaHei,Arial" x="46.0" y="25.0">v</tspan><tspan textLength="8.5" style="font-family:Monaspace Radon,PingFang SC,Mircrosoft YaHei,Arial;font-size:10.40pt" x="59.5" y="29.2">1</tspan></text></g><g id="shape6" transform="translate(740.733343,831.700787)"><path stroke-width="1" fill="#ffffff" fill-rule="nonzero" stroke="#101843" d="M114.0,38.0L114.0,.0L.0,.0L.0,38.0L114.0,38.0z"/><text xml:space="preserve" style="fill:#191919;font-family:Monaspace Radon,PingFang SC,Mircrosoft YaHei,Arial;font-size:16.00pt"><tspan style="font-family:Monaspace Radon,PingFang SC,Mircrosoft YaHei,Arial" x="46.0" y="25.0">v</tspan><tspan textLength="8.5" style="font-family:Monaspace Radon,PingFang SC,Mircrosoft YaHei,Arial;font-size:10.40pt" x="59.5" y="29.2">2</tspan></text></g><g id="shape7" transform="translate(740.733343,869.700787)"><path stroke-width="1" fill="#ffffff" fill-rule="nonzero" stroke="#101843" d="M114.0,38.0L114.0,.0L.0,.0L.0,38.0L114.0,38.0z"/><text xml:space="preserve" style="fill:#191919;font-family:微软雅黑,PingFang SC,Mircrosoft YaHei,Arial;font-size:16.00pt"><tspan style="font-family:微软雅黑,PingFang SC,Mircrosoft YaHei,Arial" x="49.5" y="26.0">...</tspan></text></g><g id="shape8" transform="translate(740.733343,907.700787)"><path stroke-width="1" fill="#ffffff" fill-rule="nonzero" stroke="#101843" d="M114.0,38.0L114.0,.0L.0,.0L.0,38.0L114.0,38.0z"/><text xml:space="preserve" style="fill:#191919;font-family:Monaspace Radon,PingFang SC,Mircrosoft YaHei,Arial;font-size:16.00pt"><tspan style="font-family:Monaspace Radon,PingFang SC,Mircrosoft YaHei,Arial" x="37.5" y="25.0">v</tspan><tspan textLength="25.5" style="font-family:Monaspace Radon,PingFang SC,Mircrosoft YaHei,Arial;font-size:10.40pt" x="51.0" y="29.2">b-1</tspan></text></g><g id="shape9" transform="translate(349.000000,916.187681)"><path stroke-width="2.666666746139526" fill="#ebebeb" fill-rule="nonzero" stroke="#004098" d="M114.0,38.0L114.0,.0L.0,.0L.0,38.0L114.0,38.0z"/><text xml:space="preserve" style="fill:#191919;font-family:Monaspace Radon,PingFang SC,Mircrosoft YaHei,Arial;font-size:16.00pt"><tspan style="font-family:Monaspace Radon,PingFang SC,Mircrosoft YaHei,Arial" x="46.0" y="25.0">q</tspan><tspan textLength="8.5" style="font-family:Monaspace Radon,PingFang SC,Mircrosoft YaHei,Arial;font-size:10.40pt" x="59.5" y="29.2">0</tspan></text></g><g id="shape10" transform="translate(349.000000,954.187681)"><path stroke-width="1" fill="#ffffff" fill-rule="nonzero" stroke="#101843" d="M114.0,38.0L114.0,.0L.0,.0L.0,38.0L114.0,38.0z"/><text xml:space="preserve" style="fill:#191919;font-family:Monaspace Radon,PingFang SC,Mircrosoft YaHei,Arial;font-size:16.00pt"><tspan style="font-family:Monaspace Radon,PingFang SC,Mircrosoft YaHei,Arial" x="46.0" y="25.0">q</tspan><tspan textLength="8.5" style="font-family:Monaspace Radon,PingFang SC,Mircrosoft YaHei,Arial;font-size:10.40pt" x="59.5" y="29.2">1</tspan></text></g><g id="shape11" transform="translate(349.000000,992.187681)"><path stroke-width="1" fill="#ffffff" fill-rule="nonzero" stroke="#101843" d="M114.0,38.0L114.0,.0L.0,.0L.0,38.0L114.0,38.0z"/><text xml:space="preserve" style="fill:#191919;font-family:微软雅黑,PingFang SC,Mircrosoft YaHei,Arial;font-size:16.00pt"><tspan style="font-family:微软雅黑,PingFang SC,Mircrosoft YaHei,Arial" x="49.5" y="26.0">...</tspan></text></g><g id="shape12" transform="translate(349.000000,1030.187681)"><path stroke-width="1" fill="#ffffff" fill-rule="nonzero" stroke="#101843" d="M114.0,38.0L114.0,.0L.0,.0L.0,38.0L114.0,38.0z"/><text xml:space="preserve" style="fill:#191919;font-family:Monaspace Radon,PingFang SC,Mircrosoft YaHei,Arial;font-size:16.00pt"><tspan style="font-family:Monaspace Radon,PingFang SC,Mircrosoft YaHei,Arial" x="37.5" y="25.0">q</tspan><tspan textLength="25.5" style="font-family:Monaspace Radon,PingFang SC,Mircrosoft YaHei,Arial;font-size:10.40pt" x="51.0" y="29.2">s-1</tspan></text></g><g id="shape13" transform="translate(343.675343,1097.700681)"><path stroke-width="1" fill="#ffffff" fill-rule="nonzero" stroke="#101843" d="M114.0,38.0L114.0,.0L.0,.0L.0,38.0L114.0,38.0z"/><text xml:space="preserve" style="fill:#191919;font-family:微软雅黑,PingFang SC,Mircrosoft YaHei,Arial;font-size:16.00pt"><tspan style="font-family:微软雅黑,PingFang SC,Mircrosoft YaHei,Arial" x="47.3" y="26.0">v</tspan><tspan textLength="8.0" style="font-family:微软雅黑,PingFang SC,Mircrosoft YaHei,Arial;font-size:10.40pt" x="58.8" y="30.6">0</tspan></text></g><g id="shape14" transform="translate(343.675343,1135.700681)"><path stroke-width="1" fill="#ffffff" fill-rule="nonzero" stroke="#101843" d="M114.0,38.0L114.0,.0L.0,.0L.0,38.0L114.0,38.0z"/><text xml:space="preserve" style="fill:#191919;font-family:微软雅黑,PingFang SC,Mircrosoft YaHei,Arial;font-size:16.00pt"><tspan style="font-family:微软雅黑,PingFang SC,Mircrosoft YaHei,Arial" x="47.3" y="26.0">v</tspan><tspan textLength="8.0" style="font-family:微软雅黑,PingFang SC,Mircrosoft YaHei,Arial;font-size:10.40pt" x="58.8" y="30.6">1</tspan></text></g><g id="shape15" transform="translate(343.675343,1173.700681)"><path stroke-width="1" fill="#ffffff" fill-rule="nonzero" stroke="#101843" d="M114.0,38.0L114.0,.0L.0,.0L.0,38.0L114.0,38.0z"/><text xml:space="preserve" style="fill:#191919;font-family:微软雅黑,PingFang SC,Mircrosoft YaHei,Arial;font-size:16.00pt"><tspan style="font-family:微软雅黑,PingFang SC,Mircrosoft YaHei,Arial" x="47.3" y="26.0">v</tspan><tspan textLength="8.0" style="font-family:微软雅黑,PingFang SC,Mircrosoft YaHei,Arial;font-size:10.40pt" x="58.8" y="30.6">2</tspan></text></g><g id="shape16" transform="translate(343.675343,1211.700681)"><path stroke-width="1" fill="#ffffff" fill-rule="nonzero" stroke="#101843" d="M114.0,38.0L114.0,.0L.0,.0L.0,38.0L114.0,38.0z"/><text xml:space="preserve" style="fill:#191919;font-family:微软雅黑,PingFang SC,Mircrosoft YaHei,Arial;font-size:16.00pt"><tspan style="font-family:微软雅黑,PingFang SC,Mircrosoft YaHei,Arial" x="49.5" y="26.0">...</tspan></text></g><g id="shape17" transform="translate(343.675343,1249.700681)"><path stroke-width="1" fill="#ffffff" fill-rule="nonzero" stroke="#101843" d="M114.0,38.0L114.0,.0L.0,.0L.0,38.0L114.0,38.0z"/><text xml:space="preserve" style="fill:#191919;font-family:微软雅黑,PingFang SC,Mircrosoft YaHei,Arial;font-size:16.00pt"><tspan style="font-family:微软雅黑,PingFang SC,Mircrosoft YaHei,Arial" x="40.0" y="26.0">v</tspan><tspan textLength="22.5" style="font-family:微软雅黑,PingFang SC,Mircrosoft YaHei,Arial;font-size:10.40pt" x="51.5" y="30.6">b-1</tspan></text></g><g id="shape18" transform="translate(387.506343,1109.486681)"><path stroke-width="1" fill="#ffffff" fill-rule="nonzero" stroke="#101843" d="M114.0,38.0L114.0,.0L.0,.0L.0,38.0L114.0,38.0z"/><text xml:space="preserve" style="fill:#191919;font-family:微软雅黑,PingFang SC,Mircrosoft YaHei,Arial;font-size:16.00pt"><tspan style="font-family:微软雅黑,PingFang SC,Mircrosoft YaHei,Arial" x="47.3" y="26.0">v</tspan><tspan textLength="8.0" style="font-family:微软雅黑,PingFang SC,Mircrosoft YaHei,Arial;font-size:10.40pt" x="58.8" y="30.6">0</tspan></text></g><g id="shape19" transform="translate(387.506343,1147.486681)"><path stroke-width="1" fill="#ffffff" fill-rule="nonzero" stroke="#101843" d="M114.0,38.0L114.0,.0L.0,.0L.0,38.0L114.0,38.0z"/><text xml:space="preserve" style="fill:#191919;font-family:微软雅黑,PingFang SC,Mircrosoft YaHei,Arial;font-size:16.00pt"><tspan style="font-family:微软雅黑,PingFang SC,Mircrosoft YaHei,Arial" x="47.3" y="26.0">v</tspan><tspan textLength="8.0" style="font-family:微软雅黑,PingFang SC,Mircrosoft YaHei,Arial;font-size:10.40pt" x="58.8" y="30.6">1</tspan></text></g><g id="shape20" transform="translate(387.506343,1185.486681)"><path stroke-width="1" fill="#ffffff" fill-rule="nonzero" stroke="#101843" d="M114.0,38.0L114.0,.0L.0,.0L.0,38.0L114.0,38.0z"/><text xml:space="preserve" style="fill:#191919;font-family:微软雅黑,PingFang SC,Mircrosoft YaHei,Arial;font-size:16.00pt"><tspan style="font-family:微软雅黑,PingFang SC,Mircrosoft YaHei,Arial" x="47.3" y="26.0">v</tspan><tspan textLength="8.0" style="font-family:微软雅黑,PingFang SC,Mircrosoft YaHei,Arial;font-size:10.40pt" x="58.8" y="30.6">2</tspan></text></g><g id="shape21" transform="translate(387.506343,1223.486681)"><path stroke-width="1" fill="#ffffff" fill-rule="nonzero" stroke="#101843" d="M114.0,38.0L114.0,.0L.0,.0L.0,38.0L114.0,38.0z"/><text xml:space="preserve" style="fill:#191919;font-family:微软雅黑,PingFang SC,Mircrosoft YaHei,Arial;font-size:16.00pt"><tspan style="font-family:微软雅黑,PingFang SC,Mircrosoft YaHei,Arial" x="49.5" y="26.0">...</tspan></text></g><g id="shape22" transform="translate(387.506343,1261.486681)"><path stroke-width="1" fill="#ffffff" fill-rule="nonzero" stroke="#101843" d="M114.0,38.0L114.0,.0L.0,.0L.0,38.0L114.0,38.0z"/><text xml:space="preserve" style="fill:#191919;font-family:微软雅黑,PingFang SC,Mircrosoft YaHei,Arial;font-size:16.00pt"><tspan style="font-family:微软雅黑,PingFang SC,Mircrosoft YaHei,Arial" x="40.0" y="26.0">v</tspan><tspan textLength="22.5" style="font-family:微软雅黑,PingFang SC,Mircrosoft YaHei,Arial;font-size:10.40pt" x="51.5" y="30.6">b-1</tspan></text></g><g id="shape23" transform="translate(430.506343,1124.486681)"><path stroke-width="1" fill="#ffffff" fill-rule="nonzero" stroke="#101843" d="M114.0,38.0L114.0,.0L.0,.0L.0,38.0L114.0,38.0z"/><text xml:space="preserve" style="fill:#191919;font-family:微软雅黑,PingFang SC,Mircrosoft YaHei,Arial;font-size:16.00pt"><tspan style="font-family:微软雅黑,PingFang SC,Mircrosoft YaHei,Arial" x="47.3" y="26.0">v</tspan><tspan textLength="8.0" style="font-family:微软雅黑,PingFang SC,Mircrosoft YaHei,Arial;font-size:10.40pt" x="58.8" y="30.6">0</tspan></text></g><g id="shape24" transform="translate(430.506343,1162.486681)"><path stroke-width="1" fill="#ffffff" fill-rule="nonzero" stroke="#101843" d="M114.0,38.0L114.0,.0L.0,.0L.0,38.0L114.0,38.0z"/><text xml:space="preserve" style="fill:#191919;font-family:微软雅黑,PingFang SC,Mircrosoft YaHei,Arial;font-size:16.00pt"><tspan style="font-family:微软雅黑,PingFang SC,Mircrosoft YaHei,Arial" x="47.3" y="26.0">v</tspan><tspan textLength="8.0" style="font-family:微软雅黑,PingFang SC,Mircrosoft YaHei,Arial;font-size:10.40pt" x="58.8" y="30.6">1</tspan></text></g><g id="shape25" transform="translate(430.506343,1200.486681)"><path stroke-width="1" fill="#ffffff" fill-rule="nonzero" stroke="#101843" d="M114.0,38.0L114.0,.0L.0,.0L.0,38.0L114.0,38.0z"/><text xml:space="preserve" style="fill:#191919;font-family:微软雅黑,PingFang SC,Mircrosoft YaHei,Arial;font-size:16.00pt"><tspan style="font-family:微软雅黑,PingFang SC,Mircrosoft YaHei,Arial" x="47.3" y="26.0">v</tspan><tspan textLength="8.0" style="font-family:微软雅黑,PingFang SC,Mircrosoft YaHei,Arial;font-size:10.40pt" x="58.8" y="30.6">2</tspan></text></g><g id="shape26" transform="translate(430.506343,1238.486681)"><path stroke-width="1" fill="#ffffff" fill-rule="nonzero" stroke="#101843" d="M114.0,38.0L114.0,.0L.0,.0L.0,38.0L114.0,38.0z"/><text xml:space="preserve" style="fill:#191919;font-family:微软雅黑,PingFang SC,Mircrosoft YaHei,Arial;font-size:16.00pt"><tspan style="font-family:微软雅黑,PingFang SC,Mircrosoft YaHei,Arial" x="49.5" y="26.0">...</tspan></text></g><g id="shape27" transform="translate(430.506343,1276.486681)"><path stroke-width="1" fill="#ffffff" fill-rule="nonzero" stroke="#101843" d="M114.0,38.0L114.0,.0L.0,.0L.0,38.0L114.0,38.0z"/><text xml:space="preserve" style="fill:#191919;font-family:微软雅黑,PingFang SC,Mircrosoft YaHei,Arial;font-size:16.00pt"><tspan style="font-family:微软雅黑,PingFang SC,Mircrosoft YaHei,Arial" x="40.0" y="26.0">v</tspan><tspan textLength="22.5" style="font-family:微软雅黑,PingFang SC,Mircrosoft YaHei,Arial;font-size:10.40pt" x="51.5" y="30.6">b-1</tspan></text></g><g id="shape28" transform="translate(476.506343,1135.700681)"><path stroke-width="1" fill="#ffffff" fill-rule="nonzero" stroke="#101843" d="M114.0,38.0L114.0,.0L.0,.0L.0,38.0L114.0,38.0z"/><text xml:space="preserve" style="fill:#191919;font-family:Monaspace Radon,PingFang SC,Mircrosoft YaHei,Arial;font-size:16.00pt"><tspan style="font-family:Monaspace Radon,PingFang SC,Mircrosoft YaHei,Arial" x="20.5" y="25.0">q</tspan><tspan textLength="59.5" style="font-family:Monaspace Radon,PingFang SC,Mircrosoft YaHei,Arial;font-size:10.40pt" x="34.0" y="29.2">(w-1)*s</tspan></text></g><g id="shape29" transform="translate(476.506343,1173.700681)"><path stroke-width="1" fill="#ffffff" fill-rule="nonzero" stroke="#101843" d="M114.0,38.0L114.0,.0L.0,.0L.0,38.0L114.0,38.0z"/><text xml:space="preserve" style="fill:#191919;font-family:Monaspace Radon,PingFang SC,Mircrosoft YaHei,Arial;font-size:16.00pt"><tspan style="font-family:Monaspace Radon,PingFang SC,Mircrosoft YaHei,Arial" x="12.0" y="25.0">q</tspan><tspan textLength="76.5" style="font-family:Monaspace Radon,PingFang SC,Mircrosoft YaHei,Arial;font-size:10.40pt" x="25.5" y="29.2">(w-1)*s+1</tspan></text></g><g id="shape30" transform="translate(476.506343,1211.700681)"><path stroke-width="1" fill="#ffffff" fill-rule="nonzero" stroke="#101843" d="M114.0,38.0L114.0,.0L.0,.0L.0,38.0L114.0,38.0z"/><text xml:space="preserve" style="fill:#191919;font-family:Monaspace Radon,PingFang SC,Mircrosoft YaHei,Arial;font-size:16.00pt"><tspan textLength="25.5" style="font-family:Monaspace Radon,PingFang SC,Mircrosoft YaHei,Arial;font-size:10.40pt" x="44.3" y="29.2">...</tspan></text></g><g id="shape31" transform="translate(476.506343,1249.700681)"><path stroke-width="1" fill="#ffffff" fill-rule="nonzero" stroke="#101843" d="M114.0,38.0L114.0,.0L.0,.0L.0,38.0L114.0,38.0z"/><text xml:space="preserve" style="fill:#191919;font-family:微软雅黑,PingFang SC,Mircrosoft YaHei,Arial;font-size:16.00pt"><tspan style="font-family:微软雅黑,PingFang SC,Mircrosoft YaHei,Arial" x="49.5" y="26.0">...</tspan></text></g><g id="shape32" transform="translate(476.506343,1288.914681)"><path stroke-width="1" fill="#ffffff" fill-rule="nonzero" stroke="#101843" d="M114.0,38.0L114.0,.0L.0,.0L.0,38.0L114.0,38.0z"/><text xml:space="preserve" style="fill:#191919;font-family:Monaspace Radon,PingFang SC,Mircrosoft YaHei,Arial;font-size:16.00pt"><tspan style="font-family:Monaspace Radon,PingFang SC,Mircrosoft YaHei,Arial" x="29.0" y="25.0">q</tspan><tspan textLength="42.5" style="font-family:Monaspace Radon,PingFang SC,Mircrosoft YaHei,Arial;font-size:10.40pt" x="42.5" y="29.2">w*s-1</tspan></text></g><text stroke-width="1" id="shape33" fill="#004098" paint-order="stroke" transform="matrix(2.000000,0.000000,0.000000,2.000000,343.398343,880.828681)" stroke="#323232"><tspan style="font-family:Monaspace Radon,PingFang SC,Mircrosoft YaHei,Arial;font-size:24.00pt">cache</tspan></text><path stroke-width="2.666670083999634" id="shape34" fill="none" transform="matrix(0.000000,1.000000,-1.000000,0.000000,750.733343,768.213787)" stroke="#191919" d="M.0,.0C113.0,75.0,37.0,-76.0,151.0,.0"/><path stroke-width="2.666670083999634" id="shape35" fill="none" transform="matrix(0.000000,1.000000,-1.000000,0.000000,762.278794,945.700787)" stroke="#191919" d="M.0,.0C113.0,75.0,37.0,-76.0,151.0,.0"/><g id="shape36" transform="translate(740.733343,1135.700681)"><path stroke-width="1" fill="#ffffff" fill-rule="nonzero" stroke="#101843" d="M114.0,38.0L114.0,.0L.0,.0L.0,38.0L114.0,38.0z"/><text xml:space="preserve" style="fill:#191919;font-family:Monaspace Radon,PingFang SC,Mircrosoft YaHei,Arial;font-size:10.40pt"><tspan style="font-family:Monaspace Radon,PingFang SC,Mircrosoft YaHei,Arial;font-size:16.00pt" x="20.5" y="25.0">V</tspan><tspan textLength="59.5" style="font-family:Monaspace Radon,PingFang SC,Mircrosoft YaHei,Arial" x="34.0" y="29.2">(t-1)*b</tspan></text></g><g id="shape37" transform="translate(740.733343,1173.700681)"><path stroke-width="1" fill="#ffffff" fill-rule="nonzero" stroke="#101843" d="M114.0,38.0L114.0,.0L.0,.0L.0,38.0L114.0,38.0z"/><text xml:space="preserve" style="fill:#191919;font-family:Monaspace Radon,PingFang SC,Mircrosoft YaHei,Arial;font-size:16.00pt"><tspan style="font-family:Monaspace Radon,PingFang SC,Mircrosoft YaHei,Arial" x="12.0" y="25.0">V</tspan><tspan textLength="76.5" style="font-family:Monaspace Radon,PingFang SC,Mircrosoft YaHei,Arial;font-size:10.40pt" x="25.5" y="29.2">(t-1)*b+1</tspan></text></g><g id="shape38" transform="translate(740.733343,1211.700681)"><path stroke-width="1" fill="#ffffff" fill-rule="nonzero" stroke="#101843" d="M114.0,38.0L114.0,.0L.0,.0L.0,38.0L114.0,38.0z"/><text xml:space="preserve" style="fill:#191919;font-family:Monaspace Radon,PingFang SC,Mircrosoft YaHei,Arial;font-size:16.00pt"><tspan style="font-family:Monaspace Radon,PingFang SC,Mircrosoft YaHei,Arial" x="36.8" y="25.0">...</tspan></text></g><g id="shape39" transform="translate(740.733343,1249.700681)"><path stroke-width="1" fill="#ffffff" fill-rule="nonzero" stroke="#101843" d="M114.0,38.0L114.0,.0L.0,.0L.0,38.0L114.0,38.0z"/><text xml:space="preserve" style="fill:#191919;font-family:Monaspace Radon,PingFang SC,Mircrosoft YaHei,Arial;font-size:16.00pt"><tspan style="font-family:Monaspace Radon,PingFang SC,Mircrosoft YaHei,Arial" x="36.8" y="25.0">...</tspan></text></g><g id="shape40" transform="translate(740.733343,1287.700681)"><path stroke-width="1" fill="#ffffff" fill-rule="nonzero" stroke="#101843" d="M114.0,38.0L114.0,.0L.0,.0L.0,38.0L114.0,38.0z"/><text xml:space="preserve" style="fill:#191919;font-family:Monaspace Radon,PingFang SC,Mircrosoft YaHei,Arial;font-size:16.00pt"><tspan style="font-family:Monaspace Radon,PingFang SC,Mircrosoft YaHei,Arial" x="29.0" y="25.0">v</tspan><tspan textLength="42.5" style="font-family:Monaspace Radon,PingFang SC,Mircrosoft YaHei,Arial;font-size:10.40pt" x="42.5" y="29.2">t*b-1</tspan></text></g><path stroke-width="2.666670083999634" id="shape41" fill="none" transform="matrix(0.000000,1.000000,-1.000000,0.000000,750.733343,1148.213681)" stroke="#191919" d="M.0,.0C113.0,75.0,37.0,-76.0,151.0,.0"/><text stroke-width="1" id="shape42" fill="#004098" paint-order="stroke" transform="matrix(2.072779,0.000000,0.000000,2.047619,697.844343,1037.847287)" stroke="#323232"><tspan style="font-family:Monaspace Radon,PingFang SC,Mircrosoft YaHei,Arial;font-size:16.00pt">thread</tspan></text><text stroke-width="1" id="shape43" fill="#004098" paint-order="stroke" transform="matrix(2.074507,0.000000,0.000000,2.047618,343.398343,1239.697469)" stroke="#323232"><tspan style="font-family:Monaspace Radon,PingFang SC,Mircrosoft YaHei,Arial;font-size:16.00pt">in-memory</tspan></text><path stroke-width="2.666666746139526" stroke-dasharray="29.3333,13.3333" id="shape44" fill="#ffffff" fill-rule="nonzero" transform="translate(548.000000,864.700787)" stroke="#ff0000" d="M142.0,192.5L142.0,7.0C142.0,3.1,138.9,.0,135.0,.0L7.0,.0C3.1,.0,.0,3.1,.0,7.0L.0,192.5C.0,196.4,3.1,199.5,7.0,199.5L135.0,199.5C138.9,199.5,142.0,196.4,142.0,192.5z"/><g id="shape45" transform="translate(559.907206,878.187681)"><path stroke-width="1" fill="#ffffff" fill-rule="nonzero" stroke="#101843" d="M118.8,26.0L118.8,7.0C118.8,3.1,115.7,.0,111.8,.0L7.0,.0C3.1,.0,.0,3.1,.0,7.0L.0,26.0C.0,29.9,3.1,33.0,7.0,33.0L111.8,33.0C115.7,33.0,118.8,29.9,118.8,26.0z"/><text xml:space="preserve" style="fill:#191919;font-family:Monaspace Radon,PingFang SC,Mircrosoft YaHei,Arial;font-size:12.00pt"><tspan style="font-family:Monaspace Radon,PingFang SC,Mircrosoft YaHei,Arial" x="23.2" y="20.5">Heap</tspan><tspan textLength="32.5" style="font-family:Monaspace Radon,PingFang SC,Mircrosoft YaHei,Arial;font-size:7.80pt" x="63.2" y="23.6">(0,0)</tspan></text></g><g id="shape46" transform="translate(560.081699,911.187787)"><path stroke-width="1" fill="#ffffff" fill-rule="nonzero" stroke="#101843" d="M118.8,26.0L118.8,7.0C118.8,3.1,115.7,.0,111.8,.0L7.0,.0C3.1,.0,.0,3.1,.0,7.0L.0,26.0C.0,29.9,3.1,33.0,7.0,33.0L111.8,33.0C115.7,33.0,118.8,29.9,118.8,26.0z"/><text xml:space="preserve" style="fill:#191919;font-family:Monaspace Radon,PingFang SC,Mircrosoft YaHei,Arial;font-size:12.00pt"><tspan style="font-family:Monaspace Radon,PingFang SC,Mircrosoft YaHei,Arial" x="23.2" y="20.5">Heap</tspan><tspan textLength="32.5" style="font-family:Monaspace Radon,PingFang SC,Mircrosoft YaHei,Arial;font-size:7.80pt" x="63.2" y="23.6">(1,0)</tspan></text></g><g id="shape47" transform="translate(559.907206,977.187987)"><path stroke-width="1" fill="#ffffff" fill-rule="nonzero" stroke="#101843" d="M118.8,26.0L118.8,7.0C118.8,3.1,115.7,.0,111.8,.0L7.0,.0C3.1,.0,.0,3.1,.0,7.0L.0,26.0C.0,29.9,3.1,33.0,7.0,33.0L111.8,33.0C115.7,33.0,118.8,29.9,118.8,26.0z"/><text xml:space="preserve" style="fill:#191919;font-family:Monaspace Radon,PingFang SC,Mircrosoft YaHei,Arial;font-size:12.00pt"><tspan style="font-family:Monaspace Radon,PingFang SC,Mircrosoft YaHei,Arial" x="16.7" y="20.5">Heap</tspan><tspan textLength="45.5" style="font-family:Monaspace Radon,PingFang SC,Mircrosoft YaHei,Arial;font-size:7.80pt" x="56.7" y="23.6">(t-1,0)</tspan></text></g><path stroke-width="2.666670083999634" id="shape48" fill="none" transform="matrix(0.000000,1.000000,-1.000000,0.000000,771.278794,949.674787)" stroke="#191919" d="M.0,.0C113.0,75.0,37.0,-76.0,151.0,.0"/><path stroke-width="2.666670083999634" id="shape49" fill="none" transform="matrix(0.000000,1.000000,-1.000000,0.000000,781.278794,953.671787)" stroke="#191919" d="M.0,.0C113.0,75.0,37.0,-76.0,151.0,.0"/><path stroke-width="2.666670083999634" id="shape50" fill="none" transform="matrix(0.000000,1.000000,-1.000000,0.000000,790.278794,958.674787)" stroke="#191919" d="M.0,.0C113.0,75.0,37.0,-76.0,151.0,.0"/><path stroke-width="2.666670083999634" id="shape51" fill="none" transform="matrix(0.000000,1.000000,-1.000000,0.000000,799.278794,963.671787)" stroke="#191919" d="M.0,.0C113.0,75.0,37.0,-76.0,151.0,.0"/><path stroke-width="2.666670083999634" id="shape52" fill="none" transform="matrix(0.000000,1.000000,-1.000000,0.000000,807.233345,969.487681)" stroke="#191919" d="M.0,.0C113.0,75.0,37.0,-76.0,151.0,.0"/><path stroke-width="2.666670083999634" id="shape53" fill="none" transform="matrix(0.000000,1.000000,-1.000000,0.000000,816.233345,973.461681)" stroke="#191919" d="M.0,.0C113.0,75.0,37.0,-76.0,151.0,.0"/><path stroke-width="2.666670083999634" id="shape54" fill="none" transform="matrix(0.000000,1.000000,-1.000000,0.000000,826.233345,977.458681)" stroke="#191919" d="M.0,.0C113.0,75.0,37.0,-76.0,151.0,.0"/><path stroke-width="2.666670083999634" id="shape55" fill="none" transform="matrix(0.000000,1.000000,-1.000000,0.000000,835.233345,982.461681)" stroke="#191919" d="M.0,.0C113.0,75.0,37.0,-76.0,151.0,.0"/><path stroke-width="2.666670083999634" id="shape56" fill="none" transform="matrix(0.000000,1.000000,-1.000000,0.000000,844.233345,987.458681)" stroke="#191919" d="M.0,.0C113.0,75.0,37.0,-76.0,151.0,.0"/><g id="shape57" transform="translate(678.716586,894.687734)"><path stroke-width="1" fill="none" stroke="#191919" d="M3.3,-5.0L50.5,-78.1"/><path stroke-width="1" fill="#191919" stroke-linecap="round" stroke="#191919" d="M5.8,-3.4L.0,.0L.7,-6.7L5.8,-3.4"/></g><g id="shape58" transform="translate(678.716586,993.688037)"><path stroke-width="1" fill="none" stroke="#191919" d="M1.5,5.8L51.1,198.1"/><path stroke-width="1" fill="#191919" stroke-linecap="round" stroke="#191919" d="M-1.4,6.6L.0,.0L4.4,5.1L-1.4,6.6"/></g><g id="shape59" transform="translate(559.907206,944.187887)"><path stroke-width="1" stroke-opacity="0.00" fill="#ffffff" fill-rule="nonzero" fill-opacity="0.00" stroke="#000000" d="M118.8,26.0L118.8,7.0C118.8,3.1,115.7,.0,111.8,.0L7.0,.0C3.1,.0,.0,3.1,.0,7.0L.0,26.0C.0,29.9,3.1,33.0,7.0,33.0L111.8,33.0C115.7,33.0,118.8,29.9,118.8,26.0z"/><text xml:space="preserve" style="fill:#191919;font-family:Monaspace Radon,PingFang SC,Mircrosoft YaHei,Arial;font-size:10.00pt"><tspan style="font-family:Monaspace Radon,PingFang SC,Mircrosoft YaHei,Arial" x="46.7" y="19.5">...</tspan></text></g><g id="shape60" transform="translate(678.716206,960.687987)"><path stroke-width="1" fill="none" stroke="#191919" d="M5.0,3.4L97.5,66.4"/><path stroke-width="1" fill="#191919" stroke-linecap="round" stroke="#191919" d="M3.3,5.9L.0,.0L6.6,.9L3.3,5.9"/></g><g id="shape61" transform="translate(661.000000,736.700787)"><text xml:space="preserve" style="fill:#191919;font-family:Monaspace Radon,PingFang SC,Mircrosoft YaHei,Arial;font-size:16.00pt"><tspan style="font-family:Monaspace Radon,PingFang SC,Mircrosoft YaHei,Arial" x="49.0" y="27.5">T</tspan><tspan textLength="8.5" style="font-family:Monaspace Radon,PingFang SC,Mircrosoft YaHei,Arial;font-size:10.40pt" x="62.5" y="31.7">0</tspan></text></g><g id="shape62" transform="translate(674.000000,1104.486681)"><text xml:space="preserve" style="fill:#191919;font-family:Monaspace Radon,PingFang SC,Mircrosoft YaHei,Arial;font-size:16.00pt"><tspan style="font-family:Monaspace Radon,PingFang SC,Mircrosoft YaHei,Arial" x="40.5" y="27.5">T</tspan><tspan textLength="25.5" style="font-family:Monaspace Radon,PingFang SC,Mircrosoft YaHei,Arial;font-size:10.40pt" x="54.0" y="31.7">t-1</tspan></text></g><g id="shape63" transform="translate(558.716206,1010.188087)"><text xml:space="preserve" style="fill:#004098;font-family:Monaspace Radon,PingFang SC,Mircrosoft YaHei,Arial;font-size:24.00pt"><tspan style="font-family:Monaspace Radon,PingFang SC,Mircrosoft YaHei,Arial" x="10.0" y="36.5">Top-k</tspan></text></g><g id="shape64" transform="translate(548.000000,964.444437)"><path stroke-width="2.666666746139526" stroke-dasharray="29.3333,13.3333" fill="none" stroke="#ff0000" d="M.0,.0L-75.7,-26.1"/><path stroke-width="1" fill="#ff0000" stroke-linecap="round" stroke="#ff0000" d="M-77.3,-21.4L-85.0,-29.3L-74.1,-30.7L-77.3,-21.4"/></g><g id="shape65" transform="translate(536.891079,973.187781)"><path stroke-width="2.666666746139526" stroke-dasharray="29.3333,13.3333" fill="none" stroke="#004098" d="M.0,.0L-64.1,-0.0"/><path stroke-width="1" fill="#004098" stroke-linecap="round" stroke="#004098" d="M-64.1,4.9L-73.9,-0.0L-64.1,-4.9L-64.1,4.9"/></g><g id="shape66" transform="translate(529.000000,979.957281)"><path stroke-width="2.666666746139526" stroke-dasharray="29.3333,13.3333" fill="none" stroke="#00b050" d="M.0,.0L-59.2,62.1"/><path stroke-width="1" fill="#00b050" stroke-linecap="round" stroke="#00b050" d="M-55.7,65.5L-66.0,69.2L-62.8,58.8L-55.7,65.5"/></g><path stroke-width="1" id="shape67" fill="#ffffff" fill-rule="nonzero" transform="translate(322.844343,727.700787)" stroke="#101843" d="M375.0,104.0L375.0,.0L.0,.0L.0,104.0L375.0,104.0z"/><g id="shape68" transform="translate(328.000000,733.700787)"><path stroke-width="2.666666746139526" stroke-dasharray="29.3333,13.3333" fill="#ffffff" fill-rule="nonzero" stroke="#ff0000" d="M100.0,53.0L100.0,7.0C100.0,3.1,96.9,.0,93.0,.0L7.0,.0C3.1,.0,.0,3.1,.0,7.0L.0,53.0C.0,56.9,3.1,60.0,7.0,60.0L93.0,60.0C96.9,60.0,100.0,56.9,100.0,53.0z"/><text xml:space="preserve" style="fill:#191919;font-family:Monaspace Radon,PingFang SC,Mircrosoft YaHei,Arial;font-size:16.00pt"><tspan style="font-family:Monaspace Radon,PingFang SC,Mircrosoft YaHei,Arial" x="16.3" y="36.0">Top-k</tspan></text></g><g id="shape69" transform="translate(437.506343,733.700787)"><path stroke-width="2.666670083999634" stroke-dasharray="29.3334,13.3334" fill="#ffffff" fill-rule="nonzero" stroke="#004098" d="M100.0,53.0L100.0,7.0C100.0,3.1,96.9,.0,93.0,.0L7.0,.0C3.1,.0,.0,3.1,.0,7.0L.0,53.0C.0,56.9,3.1,60.0,7.0,60.0L93.0,60.0C96.9,60.0,100.0,56.9,100.0,53.0z"/><text xml:space="preserve" style="fill:#191919;font-family:Monaspace Radon,PingFang SC,Mircrosoft YaHei,Arial;font-size:16.00pt"><tspan style="font-family:Monaspace Radon,PingFang SC,Mircrosoft YaHei,Arial" x="16.3" y="36.0">Top-k</tspan></text></g><g id="shape70" transform="translate(590.000000,733.700787)"><path stroke-width="2.666670083999634" stroke-dasharray="29.3334,13.3334" fill="#ffffff" fill-rule="nonzero" stroke="#00b050" d="M100.0,53.0L100.0,7.0C100.0,3.1,96.9,.0,93.0,.0L7.0,.0C3.1,.0,.0,3.1,.0,7.0L.0,53.0C.0,56.9,3.1,60.0,7.0,60.0L93.0,60.0C96.9,60.0,100.0,56.9,100.0,53.0z"/><text xml:space="preserve" style="fill:#191919;font-family:Monaspace Radon,PingFang SC,Mircrosoft YaHei,Arial;font-size:16.00pt"><tspan style="font-family:Monaspace Radon,PingFang SC,Mircrosoft YaHei,Arial" x="16.3" y="36.0">Top-k</tspan></text></g><g id="shape71" transform="translate(501.259843,710.200787)"><text xml:space="preserve" style="fill:#191919;font-family:Monaspace Radon,PingFang SC,Mircrosoft YaHei,Arial;font-size:16.00pt"><tspan style="font-family:Monaspace Radon,PingFang SC,Mircrosoft YaHei,Arial" x="53.3" y="22.8">.</tspan><tspan style="font-family:Monaspace Radon,PingFang SC,Mircrosoft YaHei,Arial" x="53.3" y="48.8">.</tspan><tspan style="font-family:Monaspace Radon,PingFang SC,Mircrosoft YaHei,Arial" x="53.3" y="74.8">.</tspan></text></g><g id="shape72" transform="translate(390.344343,772.700787)"><text xml:space="preserve" style="fill:#191919;font-family:Monaspace Radon,PingFang SC,Mircrosoft YaHei,Arial;font-size:24.00pt"><tspan style="font-family:Monaspace Radon,PingFang SC,Mircrosoft YaHei,Arial" x="60.0" y="55.0">Reduce</tspan></text></g></g></svg>