<svg xmlns="http://www.w3.org/2000/svg" xmlns:xlink="http://www.w3.org/1999/xlink" height="203" viewBox="0 0 320 203" width="320"><defs/><g transform="translate(-291.00,-196.32)"><g id="shape1" transform="translate(292.000000,197.322394)"><path fill-rule="nonzero" fill="#ffffff" stroke="#101843" stroke-width="1" d="M114.0,38.0L114.0,.0L.0,.0L.0,38.0L114.0,38.0z"/><text xml:space="preserve" style="fill:#191919;font-family:Monaspace Radon,PingFang SC,Mircrosoft YaHei,Arial;font-size:16.00pt"><tspan y="25.0" x="46.0" style="font-family:Monaspace Radon,PingFang SC,Mircrosoft YaHei,Arial">q</tspan><tspan textLength="8.5" y="29.2" x="59.5" style="font-family:Monaspace Radon,PingFang SC,Mircrosoft YaHei,Arial;font-size:10.40pt">0</tspan></text></g><g id="shape2" transform="translate(292.000000,235.322394)"><path fill-rule="nonzero" fill="#ffffff" stroke="#101843" stroke-width="1" d="M114.0,38.0L114.0,.0L.0,.0L.0,38.0L114.0,38.0z"/><text xml:space="preserve" style="fill:#191919;font-family:Monaspace Radon,PingFang SC,Mircrosoft YaHei,Arial;font-size:16.00pt"><tspan y="25.0" x="46.0" style="font-family:Monaspace Radon,PingFang SC,Mircrosoft YaHei,Arial">q</tspan><tspan textLength="8.5" y="29.2" x="59.5" style="font-family:Monaspace Radon,PingFang SC,Mircrosoft YaHei,Arial;font-size:10.40pt">1</tspan></text></g><g id="shape3" transform="translate(292.000000,273.324394)"><path fill-rule="nonzero" fill="#ffffff" stroke="#101843" stroke-width="1" d="M114.0,38.0L114.0,.0L.0,.0L.0,38.0L114.0,38.0z"/><text xml:space="preserve" style="fill:#191919;font-family:微软雅黑,PingFang SC,Mircrosoft YaHei,Arial;font-size:16.00pt"><tspan y="26.0" x="49.5" style="font-family:微软雅黑,PingFang SC,Mircrosoft YaHei,Arial">...</tspan></text></g><g id="shape4" transform="translate(292.000000,311.324394)"><path fill-rule="nonzero" fill="#ffffff" stroke="#101843" stroke-width="1" d="M114.0,38.0L114.0,.0L.0,.0L.0,38.0L114.0,38.0z"/><text xml:space="preserve" style="fill:#191919;font-family:Monaspace Radon,PingFang SC,Mircrosoft YaHei,Arial;font-size:16.00pt"><tspan y="25.0" x="37.5" style="font-family:Monaspace Radon,PingFang SC,Mircrosoft YaHei,Arial">q</tspan><tspan textLength="25.5" y="29.2" x="51.0" style="font-family:Monaspace Radon,PingFang SC,Mircrosoft YaHei,Arial;font-size:10.40pt">s-1</tspan></text></g><g id="shape5" transform="translate(367.982843,208.534394)"><path fill-rule="nonzero" fill="#ffffff" stroke="#101843" stroke-width="1" d="M114.0,38.0L114.0,.0L.0,.0L.0,38.0L114.0,38.0z"/><text xml:space="preserve" style="fill:#191919;font-family:微软雅黑,PingFang SC,Mircrosoft YaHei,Arial;font-size:16.00pt"><tspan y="26.0" x="47.3" style="font-family:微软雅黑,PingFang SC,Mircrosoft YaHei,Arial">v</tspan><tspan textLength="8.0" y="30.6" x="58.8" style="font-family:微软雅黑,PingFang SC,Mircrosoft YaHei,Arial;font-size:10.40pt">0</tspan></text></g><g id="shape6" transform="translate(367.982843,246.534394)"><path fill-rule="nonzero" fill="#ffffff" stroke="#101843" stroke-width="1" d="M114.0,38.0L114.0,.0L.0,.0L.0,38.0L114.0,38.0z"/><text xml:space="preserve" style="fill:#191919;font-family:微软雅黑,PingFang SC,Mircrosoft YaHei,Arial;font-size:16.00pt"><tspan y="26.0" x="47.3" style="font-family:微软雅黑,PingFang SC,Mircrosoft YaHei,Arial">v</tspan><tspan textLength="8.0" y="30.6" x="58.8" style="font-family:微软雅黑,PingFang SC,Mircrosoft YaHei,Arial;font-size:10.40pt">1</tspan></text></g><g id="shape7" transform="translate(367.982843,284.534394)"><path fill-rule="nonzero" fill="#ffffff" stroke="#101843" stroke-width="1" d="M114.0,38.0L114.0,.0L.0,.0L.0,38.0L114.0,38.0z"/><text xml:space="preserve" style="fill:#191919;font-family:微软雅黑,PingFang SC,Mircrosoft YaHei,Arial;font-size:16.00pt"><tspan y="26.0" x="47.3" style="font-family:微软雅黑,PingFang SC,Mircrosoft YaHei,Arial">v</tspan><tspan textLength="8.0" y="30.6" x="58.8" style="font-family:微软雅黑,PingFang SC,Mircrosoft YaHei,Arial;font-size:10.40pt">2</tspan></text></g><g id="shape8" transform="translate(367.982843,322.534394)"><path fill-rule="nonzero" fill="#ffffff" stroke="#101843" stroke-width="1" d="M114.0,38.0L114.0,.0L.0,.0L.0,38.0L114.0,38.0z"/><text xml:space="preserve" style="fill:#191919;font-family:微软雅黑,PingFang SC,Mircrosoft YaHei,Arial;font-size:16.00pt"><tspan y="26.0" x="49.5" style="font-family:微软雅黑,PingFang SC,Mircrosoft YaHei,Arial">...</tspan></text></g><g id="shape9" transform="translate(411.813843,220.324394)"><path fill-rule="nonzero" fill="#ffffff" stroke="#101843" stroke-width="1" d="M114.0,38.0L114.0,.0L.0,.0L.0,38.0L114.0,38.0z"/><text xml:space="preserve" style="fill:#191919;font-family:微软雅黑,PingFang SC,Mircrosoft YaHei,Arial;font-size:16.00pt"><tspan y="26.0" x="47.3" style="font-family:微软雅黑,PingFang SC,Mircrosoft YaHei,Arial">v</tspan><tspan textLength="8.0" y="30.6" x="58.8" style="font-family:微软雅黑,PingFang SC,Mircrosoft YaHei,Arial;font-size:10.40pt">0</tspan></text></g><g id="shape10" transform="translate(411.813843,258.324394)"><path fill-rule="nonzero" fill="#ffffff" stroke="#101843" stroke-width="1" d="M114.0,38.0L114.0,.0L.0,.0L.0,38.0L114.0,38.0z"/><text xml:space="preserve" style="fill:#191919;font-family:微软雅黑,PingFang SC,Mircrosoft YaHei,Arial;font-size:16.00pt"><tspan y="26.0" x="47.3" style="font-family:微软雅黑,PingFang SC,Mircrosoft YaHei,Arial">v</tspan><tspan textLength="8.0" y="30.6" x="58.8" style="font-family:微软雅黑,PingFang SC,Mircrosoft YaHei,Arial;font-size:10.40pt">1</tspan></text></g><g id="shape11" transform="translate(411.813843,296.324394)"><path fill-rule="nonzero" fill="#ffffff" stroke="#101843" stroke-width="1" d="M114.0,38.0L114.0,.0L.0,.0L.0,38.0L114.0,38.0z"/><text xml:space="preserve" style="fill:#191919;font-family:微软雅黑,PingFang SC,Mircrosoft YaHei,Arial;font-size:16.00pt"><tspan y="26.0" x="47.3" style="font-family:微软雅黑,PingFang SC,Mircrosoft YaHei,Arial">v</tspan><tspan textLength="8.0" y="30.6" x="58.8" style="font-family:微软雅黑,PingFang SC,Mircrosoft YaHei,Arial;font-size:10.40pt">2</tspan></text></g><g id="shape12" transform="translate(411.813843,334.324394)"><path fill-rule="nonzero" fill="#ffffff" stroke="#101843" stroke-width="1" d="M114.0,38.0L114.0,.0L.0,.0L.0,38.0L114.0,38.0z"/><text xml:space="preserve" style="fill:#191919;font-family:微软雅黑,PingFang SC,Mircrosoft YaHei,Arial;font-size:16.00pt"><tspan y="26.0" x="49.5" style="font-family:微软雅黑,PingFang SC,Mircrosoft YaHei,Arial">...</tspan></text></g><g id="shape13" transform="translate(454.813843,235.324394)"><path fill-rule="nonzero" fill="#ffffff" stroke="#101843" stroke-width="1" d="M114.0,38.0L114.0,.0L.0,.0L.0,38.0L114.0,38.0z"/><text xml:space="preserve" style="fill:#191919;font-family:微软雅黑,PingFang SC,Mircrosoft YaHei,Arial;font-size:16.00pt"><tspan y="26.0" x="46.0" style="font-family:微软雅黑,PingFang SC,Mircrosoft YaHei,Arial">q</tspan><tspan textLength="8.0" y="30.6" x="60.0" style="font-family:微软雅黑,PingFang SC,Mircrosoft YaHei,Arial;font-size:10.40pt">0</tspan></text></g><g id="shape14" transform="translate(454.813843,273.324394)"><path fill-rule="nonzero" fill="#ffffff" stroke="#101843" stroke-width="1" d="M114.0,38.0L114.0,.0L.0,.0L.0,38.0L114.0,38.0z"/><text xml:space="preserve" style="fill:#191919;font-family:微软雅黑,PingFang SC,Mircrosoft YaHei,Arial;font-size:16.00pt"><tspan y="26.0" x="47.3" style="font-family:微软雅黑,PingFang SC,Mircrosoft YaHei,Arial">v</tspan><tspan textLength="8.0" y="30.6" x="58.8" style="font-family:微软雅黑,PingFang SC,Mircrosoft YaHei,Arial;font-size:10.40pt">1</tspan></text></g><g id="shape15" transform="translate(454.813843,311.324394)"><path fill-rule="nonzero" fill="#ffffff" stroke="#101843" stroke-width="1" d="M114.0,38.0L114.0,.0L.0,.0L.0,38.0L114.0,38.0z"/><text xml:space="preserve" style="fill:#191919;font-family:微软雅黑,PingFang SC,Mircrosoft YaHei,Arial;font-size:16.00pt"><tspan y="26.0" x="47.3" style="font-family:微软雅黑,PingFang SC,Mircrosoft YaHei,Arial">v</tspan><tspan textLength="8.0" y="30.6" x="58.8" style="font-family:微软雅黑,PingFang SC,Mircrosoft YaHei,Arial;font-size:10.40pt">2</tspan></text></g><g id="shape16" transform="translate(454.813843,349.324394)"><path fill-rule="nonzero" fill="#ffffff" stroke="#101843" stroke-width="1" d="M114.0,38.0L114.0,.0L.0,.0L.0,38.0L114.0,38.0z"/><text xml:space="preserve" style="fill:#191919;font-family:微软雅黑,PingFang SC,Mircrosoft YaHei,Arial;font-size:16.00pt"><tspan y="26.0" x="49.5" style="font-family:微软雅黑,PingFang SC,Mircrosoft YaHei,Arial">...</tspan></text></g><g id="shape17" transform="translate(496.000000,246.535394)"><path fill-rule="nonzero" fill="#ffffff" stroke="#101843" stroke-width="1" d="M114.0,38.0L114.0,.0L.0,.0L.0,38.0L114.0,38.0z"/><text xml:space="preserve" style="fill:#191919;font-family:Monaspace Radon,PingFang SC,Mircrosoft YaHei,Arial;font-size:16.00pt"><tspan y="25.0" x="20.5" style="font-family:Monaspace Radon,PingFang SC,Mircrosoft YaHei,Arial">q</tspan><tspan textLength="59.5" y="29.2" x="34.0" style="font-family:Monaspace Radon,PingFang SC,Mircrosoft YaHei,Arial;font-size:10.40pt">(w-1)*s</tspan></text></g><g id="shape18" transform="translate(496.000000,284.535394)"><path fill-rule="nonzero" fill="#ffffff" stroke="#101843" stroke-width="1" d="M114.0,38.0L114.0,.0L.0,.0L.0,38.0L114.0,38.0z"/><text xml:space="preserve" style="fill:#191919;font-family:Monaspace Radon,PingFang SC,Mircrosoft YaHei,Arial;font-size:16.00pt"><tspan y="25.0" x="12.0" style="font-family:Monaspace Radon,PingFang SC,Mircrosoft YaHei,Arial">q</tspan><tspan textLength="76.5" y="29.2" x="25.5" style="font-family:Monaspace Radon,PingFang SC,Mircrosoft YaHei,Arial;font-size:10.40pt">(w-1)*s+1</tspan></text></g><g id="shape19" transform="translate(496.000000,322.535394)"><path fill-rule="nonzero" fill="#ffffff" stroke="#101843" stroke-width="1" d="M114.0,38.0L114.0,.0L.0,.0L.0,38.0L114.0,38.0z"/><text xml:space="preserve" style="fill:#191919;font-family:Monaspace Radon,PingFang SC,Mircrosoft YaHei,Arial;font-size:16.00pt"><tspan textLength="25.5" y="29.2" x="44.3" style="font-family:Monaspace Radon,PingFang SC,Mircrosoft YaHei,Arial;font-size:10.40pt">...</tspan></text></g><g id="shape20" transform="translate(496.000000,360.535394)"><path fill-rule="nonzero" fill="#ffffff" stroke="#101843" stroke-width="1" d="M114.0,38.0L114.0,.0L.0,.0L.0,38.0L114.0,38.0z"/><text xml:space="preserve" style="fill:#191919;font-family:Monaspace Radon,PingFang SC,Mircrosoft YaHei,Arial;font-size:16.00pt"><tspan y="25.0" x="29.0" style="font-family:Monaspace Radon,PingFang SC,Mircrosoft YaHei,Arial">q</tspan><tspan textLength="42.5" y="29.2" x="42.5" style="font-family:Monaspace Radon,PingFang SC,Mircrosoft YaHei,Arial;font-size:10.40pt">w*s-1</tspan></text></g></g></svg>