<svg xmlns="http://www.w3.org/2000/svg" width="380" xmlns:xlink="http://www.w3.org/1999/xlink" height="326" viewBox="0 0 380 326"><defs/><g transform="translate(-384.00,-139.50)"><path stroke-width="1" id="shape1" fill="#004098" fill-rule="nonzero" transform="translate(444.000000,292.000000)" stroke="#2d3c91" d="M.0,10.0C.0,4.5,4.5,.0,10.0,.0C15.5,.0,20.0,4.5,20.0,10.0C20.0,15.5,15.5,20.0,10.0,20.0C4.5,20.0,.0,15.5,.0,10.0z"/><path stroke-width="1" id="shape2" fill="#004098" fill-rule="nonzero" transform="translate(557.000000,179.000000)" stroke="#2d3c91" d="M.0,10.0C.0,4.5,4.5,.0,10.0,.0C15.5,.0,20.0,4.5,20.0,10.0C20.0,15.5,15.5,20.0,10.0,20.0C4.5,20.0,.0,15.5,.0,10.0z"/><path stroke-width="1" id="shape3" fill="#004098" fill-rule="nonzero" transform="translate(633.000000,406.000000)" stroke="#2d3c91" d="M.0,10.0C.0,4.5,4.5,.0,10.0,.0C15.5,.0,20.0,4.5,20.0,10.0C20.0,15.5,15.5,20.0,10.0,20.0C4.5,20.0,.0,15.5,.0,10.0z"/><path stroke-width="1" id="shape4" fill="#ffffff" fill-rule="nonzero" transform="translate(406.000000,330.000000)" stroke="#101843" d="M.0,10.0C.0,4.5,4.5,.0,10.0,.0C15.5,.0,20.0,4.5,20.0,10.0C20.0,15.5,15.5,20.0,10.0,20.0C4.5,20.0,.0,15.5,.0,10.0z"/><path stroke-width="1" id="shape5" fill="#ffffff" fill-rule="nonzero" transform="translate(519.759843,368.000000)" stroke="#101843" d="M.0,10.0C.0,4.5,4.5,.0,10.0,.0C15.5,.0,20.0,4.5,20.0,10.0C20.0,15.5,15.5,20.0,10.0,20.0C4.5,20.0,.0,15.5,.0,10.0z"/><path stroke-width="1" id="shape6" fill="#ffffff" fill-rule="nonzero" transform="translate(434.000000,406.000000)" stroke="#101843" d="M.0,10.0C.0,4.5,4.5,.0,10.0,.0C15.5,.0,20.0,4.5,20.0,10.0C20.0,15.5,15.5,20.0,10.0,20.0C4.5,20.0,.0,15.5,.0,10.0z"/><path stroke-width="1" id="shape7" fill="#ffffff" fill-rule="nonzero" transform="translate(708.000000,330.000000)" stroke="#101843" d="M.0,10.0C.0,4.5,4.5,.0,10.0,.0C15.5,.0,20.0,4.5,20.0,10.0C20.0,15.5,15.5,20.0,10.0,20.0C4.5,20.0,.0,15.5,.0,10.0z"/><path stroke-width="1" id="shape8" fill="#ffffff" fill-rule="nonzero" transform="translate(519.759843,217.000000)" stroke="#101843" d="M.0,10.0C.0,4.5,4.5,.0,10.0,.0C15.5,.0,20.0,4.5,20.0,10.0C20.0,15.5,15.5,20.0,10.0,20.0C4.5,20.0,.0,15.5,.0,10.0z"/><path stroke-width="1" id="shape9" fill="#ffffff" fill-rule="nonzero" transform="translate(633.000000,292.000000)" stroke="#101843" d="M.0,10.0C.0,4.5,4.5,.0,10.0,.0C15.5,.0,20.0,4.5,20.0,10.0C20.0,15.5,15.5,20.0,10.0,20.0C4.5,20.0,.0,15.5,.0,10.0z"/><path stroke-width="1" id="shape10" fill="#ffffff" fill-rule="nonzero" transform="translate(708.000000,255.000000)" stroke="#101843" d="M.0,10.0C.0,4.5,4.5,.0,10.0,.0C15.5,.0,20.0,4.5,20.0,10.0C20.0,15.5,15.5,20.0,10.0,20.0C4.5,20.0,.0,15.5,.0,10.0z"/><path stroke-width="1" id="shape11" fill="#ffffff" fill-rule="nonzero" transform="translate(557.000000,273.000000)" stroke="#101843" d="M.0,10.0C.0,4.5,4.5,.0,10.0,.0C15.5,.0,20.0,4.5,20.0,10.0C20.0,15.5,15.5,20.0,10.0,20.0C4.5,20.0,.0,15.5,.0,10.0z"/><g id="shape12" transform="translate(614.000000,179.000000)"><path stroke-width="1" fill="#ffffff" fill-rule="nonzero" stroke="#101843" d="M.0,10.0C.0,4.5,4.5,.0,10.0,.0C15.5,.0,20.0,4.5,20.0,10.0C20.0,15.5,15.5,20.0,10.0,20.0C4.5,20.0,.0,15.5,.0,10.0z"/><text xml:space="preserve" style="fill:#191919;font-family:微软雅黑,PingFang SC,Mircrosoft YaHei,Arial;font-size:10.00pt"><tspan style="font-family:微软雅黑,PingFang SC,Mircrosoft YaHei,Arial" x="3.5" y="37.5">v6</tspan></text></g><path stroke-width="1" id="shape13" fill="#ffffff" fill-rule="nonzero" transform="translate(708.000000,444.000000)" stroke="#101843" d="M.0,10.0C.0,4.5,4.5,.0,10.0,.0C15.5,.0,20.0,4.5,20.0,10.0C20.0,15.5,15.5,20.0,10.0,20.0C4.5,20.0,.0,15.5,.0,10.0z"/><g id="shape14" transform="translate(384.000000,257.500000)"><text xml:space="preserve" style="fill:#191919;font-family:微软雅黑,PingFang SC,Mircrosoft YaHei,Arial;font-size:10.00pt"><tspan style="font-family:微软雅黑,PingFang SC,Mircrosoft YaHei,Arial" x="51.8" y="24.0">q1</tspan></text></g><g id="shape15" transform="translate(488.000000,139.500000)"><text xml:space="preserve" style="fill:#191919;font-family:微软雅黑,PingFang SC,Mircrosoft YaHei,Arial;font-size:10.00pt"><tspan style="font-family:微软雅黑,PingFang SC,Mircrosoft YaHei,Arial" x="51.8" y="24.0">q2</tspan></text></g><g id="shape16" transform="translate(559.000000,422.500000)"><text xml:space="preserve" style="fill:#191919;font-family:微软雅黑,PingFang SC,Mircrosoft YaHei,Arial;font-size:10.00pt"><tspan style="font-family:微软雅黑,PingFang SC,Mircrosoft YaHei,Arial" x="51.8" y="24.0">q3</tspan></text></g><g id="shape17" transform="translate(384.000000,328.500000)"><text xml:space="preserve" style="fill:#191919;font-family:微软雅黑,PingFang SC,Mircrosoft YaHei,Arial;font-size:10.00pt"><tspan style="font-family:微软雅黑,PingFang SC,Mircrosoft YaHei,Arial" x="52.5" y="24.0">v1</tspan></text></g><g id="shape18" transform="translate(403.000000,380.500000)"><text xml:space="preserve" style="fill:#191919;font-family:微软雅黑,PingFang SC,Mircrosoft YaHei,Arial;font-size:10.00pt"><tspan style="font-family:微软雅黑,PingFang SC,Mircrosoft YaHei,Arial" x="52.5" y="24.0">v2</tspan></text></g><g id="shape19" transform="translate(469.000000,328.500000)"><text xml:space="preserve" style="fill:#191919;font-family:微软雅黑,PingFang SC,Mircrosoft YaHei,Arial;font-size:10.00pt"><tspan style="font-family:微软雅黑,PingFang SC,Mircrosoft YaHei,Arial" x="52.5" y="24.0">v3</tspan></text></g><g id="shape20" transform="translate(497.000000,219.500000)"><text xml:space="preserve" style="fill:#191919;font-family:微软雅黑,PingFang SC,Mircrosoft YaHei,Arial;font-size:10.00pt"><tspan style="font-family:微软雅黑,PingFang SC,Mircrosoft YaHei,Arial" x="52.5" y="24.0">v4</tspan></text></g><g id="shape21" transform="translate(526.000000,252.500000)"><text xml:space="preserve" style="fill:#191919;font-family:微软雅黑,PingFang SC,Mircrosoft YaHei,Arial;font-size:10.00pt"><tspan style="font-family:微软雅黑,PingFang SC,Mircrosoft YaHei,Arial" x="52.5" y="24.0">v5</tspan></text></g><g id="shape22" transform="translate(592.000000,261.500000)"><text xml:space="preserve" style="fill:#191919;font-family:微软雅黑,PingFang SC,Mircrosoft YaHei,Arial;font-size:10.00pt"><tspan style="font-family:微软雅黑,PingFang SC,Mircrosoft YaHei,Arial" x="52.5" y="24.0">v7</tspan></text></g><g id="shape23" transform="translate(636.000000,232.000000)"><text xml:space="preserve" style="fill:#191919;font-family:微软雅黑,PingFang SC,Mircrosoft YaHei,Arial;font-size:10.00pt"><tspan style="font-family:微软雅黑,PingFang SC,Mircrosoft YaHei,Arial" x="52.5" y="24.0">v8</tspan></text></g><g id="shape24" transform="translate(630.000000,337.500000)"><text xml:space="preserve" style="fill:#191919;font-family:微软雅黑,PingFang SC,Mircrosoft YaHei,Arial;font-size:10.00pt"><tspan style="font-family:微软雅黑,PingFang SC,Mircrosoft YaHei,Arial" x="52.5" y="24.0">v9</tspan></text></g><g id="shape25" transform="translate(644.000000,413.500000)"><text xml:space="preserve" style="fill:#191919;font-family:微软雅黑,PingFang SC,Mircrosoft YaHei,Arial;font-size:10.00pt"><tspan style="font-family:微软雅黑,PingFang SC,Mircrosoft YaHei,Arial" x="48.5" y="24.0">v10</tspan></text></g></g></svg>