<svg xmlns="http://www.w3.org/2000/svg" width="512" xmlns:xlink="http://www.w3.org/1999/xlink" height="561" viewBox="0 0 512 561"><defs/><g transform="translate(-262.50,-158.00)"><path stroke-width="1" id="shape1" fill="#ffffff" fill-rule="nonzero" transform="translate(324.000000,159.000000)" fill-opacity="0.00" stroke="#101843" d="M.0,194.5C.0,87.1,87.1,.0,194.5,.0C301.9,.0,389.0,87.1,389.0,194.5C389.0,301.9,301.9,389.0,194.5,389.0C87.1,389.0,.0,301.9,.0,194.5z"/><path stroke-width="2.666670083999634" id="shape2" fill="none" transform="matrix(0.000000,1.000000,-1.000000,0.000000,510.000000,265.000000)" stroke="#191919" d="M.0,.0C113.0,75.0,37.0,-76.0,151.0,.0"/><path stroke-width="2.666670083999634" id="shape3" fill="none" transform="matrix(0.000000,1.000000,-1.000000,0.000000,416.000000,265.000000)" stroke="#191919" d="M.0,.0C113.0,75.0,37.0,-76.0,151.0,.0"/><path stroke-width="2.666670083999634" id="shape4" fill="none" transform="matrix(0.000000,1.000000,-1.000000,0.000000,605.000000,265.000000)" stroke="#191919" d="M.0,.0C113.0,75.0,37.0,-76.0,151.0,.0"/><path stroke-width="1" id="shape5" fill="#ffffff" fill-rule="nonzero" transform="translate(397.000000,435.000000)" stroke="#101843" d="M19.0,9.0L19.0,.0L.0,.0L.0,9.0L19.0,9.0z"/><path stroke-width="1" id="shape6" fill="#ffffff" fill-rule="nonzero" transform="translate(397.000000,444.000000)" stroke="#101843" d="M19.0,33.0L19.0,.0L.0,.0L.0,33.0L19.0,33.0z"/><path stroke-width="1" id="shape7" fill="#ffffff" fill-rule="nonzero" transform="translate(397.000000,477.000000)" stroke="#101843" d="M19.0,9.0L19.0,.0L.0,.0L.0,9.0L19.0,9.0z"/><path stroke-width="1" id="shape8" fill="#ffffff" fill-rule="nonzero" transform="translate(490.000000,435.000000)" stroke="#101843" d="M19.0,19.0L19.0,.0L.0,.0L.0,19.0L19.0,19.0z"/><path stroke-width="1" id="shape9" fill="#ffffff" fill-rule="nonzero" transform="translate(490.000000,454.000000)" stroke="#101843" d="M19.0,23.0L19.0,.0L.0,.0L.0,23.0L19.0,23.0z"/><path stroke-width="1" id="shape10" fill="#ffffff" fill-rule="nonzero" transform="translate(490.000000,477.000000)" stroke="#101843" d="M19.0,9.0L19.0,.0L.0,.0L.0,9.0L19.0,9.0z"/><path stroke-width="1" id="shape11" fill="#ffffff" fill-rule="nonzero" transform="translate(583.000000,435.000000)" stroke="#101843" d="M19.0,9.0L19.0,.0L.0,.0L.0,9.0L19.0,9.0z"/><path stroke-width="1" id="shape12" fill="#ffffff" fill-rule="nonzero" transform="translate(583.000000,444.000000)" stroke="#101843" d="M19.0,27.0L19.0,.0L.0,.0L.0,27.0L19.0,27.0z"/><path stroke-width="1" id="shape13" fill="#ffffff" fill-rule="nonzero" transform="translate(583.000000,471.000000)" stroke="#101843" d="M19.0,15.0L19.0,.0L.0,.0L.0,15.0L19.0,15.0z"/><text stroke-width="1" id="shape14" fill="#004098" paint-order="stroke" transform="matrix(2.073901,0.000000,0.000000,2.047619,428.319060,197.617028)" stroke="#323232"><tspan style="font-family:Monaspace Radon,PingFang SC,Mircrosoft YaHei,Arial;font-size:16.00pt">Process</tspan></text><text stroke-width="1" id="shape15" fill="#004098" paint-order="stroke" transform="matrix(1.862778,0.000000,0.000000,1.909091,353.122169,283.408250)" stroke="#323232"><tspan style="font-family:Monaspace Radon,PingFang SC,Mircrosoft YaHei,Arial;font-size:8.00pt">thread1</tspan></text><text stroke-width="1" id="shape16" fill="#004098" paint-order="stroke" transform="matrix(1.863127,0.000000,0.000000,1.909091,455.280900,336.835000)" stroke="#323232"><tspan style="font-family:Monaspace Radon,PingFang SC,Mircrosoft YaHei,Arial;font-size:8.00pt">thread2</tspan></text><text stroke-width="1" id="shape17" fill="#004098" paint-order="stroke" transform="matrix(1.863175,0.000000,0.000000,1.909091,560.733650,402.408250)" stroke="#323232"><tspan style="font-family:Monaspace Radon,PingFang SC,Mircrosoft YaHei,Arial;font-size:8.00pt">thread3</tspan></text><path stroke-width="1" id="shape18" fill="#ffffff" fill-rule="nonzero" transform="translate(263.500000,564.000000)" stroke="#101843" d="M510.0,60.0L510.0,.0L.0,.0L.0,60.0L510.0,60.0z"/><path stroke-width="1" id="shape19" fill="#ebebeb" fill-rule="nonzero" transform="translate(324.000000,564.000000)" stroke="#101843" d="M92.0,60.0L92.0,.0L.0,.0L.0,60.0L92.0,60.0z"/><path stroke-width="1" id="shape20" fill="#ebebeb" fill-rule="nonzero" transform="translate(502.000000,564.000000)" stroke="#101843" d="M51.0,60.0L51.0,.0L.0,.0L.0,60.0L51.0,60.0z"/><path stroke-width="1" id="shape21" fill="#ebebeb" fill-rule="nonzero" transform="translate(671.000000,564.000000)" stroke="#101843" d="M85.0,60.0L85.0,.0L.0,.0L.0,60.0L85.0,60.0z"/><g id="shape22" transform="translate(490.000000,465.500000)"><path stroke-width="1" stroke-dasharray="2,5" fill="none" stroke="#191919" d="M.0,.0L-31.8,26.1C-33.9,23.5,-37.7,23.1,-40.2,25.3C-42.8,27.4,-43.2,31.1,-41.1,33.7L-115.4,94.7"/><path stroke-width="1" fill="#191919" stroke-linecap="round" stroke="#191919" d="M-113.5,97.0L-120.0,98.5L-117.3,92.4L-113.5,97.0"/></g><g id="shape23" transform="translate(416.000000,460.500000)"><path stroke-width="1" stroke-dasharray="2,5" fill="none" stroke="#191919" d="M.0,.0L107.1,99.4"/><path stroke-width="1" fill="#191919" stroke-linecap="round" stroke="#191919" d="M109.1,97.2L111.5,103.5L105.1,101.6L109.1,97.2"/></g><g id="shape24" transform="translate(602.000000,457.500000)"><path stroke-width="1" stroke-dasharray="2,5" fill="none" stroke="#191919" d="M.0,.0L107.2,102.4"/><path stroke-width="1" fill="#191919" stroke-linecap="round" stroke="#191919" d="M109.2,100.2L111.5,106.5L105.1,104.5L109.2,100.2"/></g><text stroke-width="1" id="shape25" fill="#004098" paint-order="stroke" transform="matrix(2.000000,0.000000,0.000000,2.000000,397.000000,597.798002)" stroke="#323232"><tspan style="font-family:Monaspace Radon,PingFang SC,Mircrosoft YaHei,Arial;font-size:24.00pt">Memory</tspan></text><path stroke-width="1" id="shape26" fill="#ebebeb" fill-rule="nonzero" transform="translate(462.997214,658.000000)" stroke="#101843" d="M100.0,60.0L100.0,.0L.0,.0L.0,60.0L100.0,60.0z"/><text stroke-width="1" id="shape27" fill="#004098" paint-order="stroke" transform="matrix(2.048657,0.000000,0.000000,2.047619,568.037567,687.591750)" stroke="#323232"><tspan style="font-family:Arial,PingFang SC,Mircrosoft YaHei,Arial;font-size:16.00pt">L3 </tspan><tspan style="font-family:Monaspace Radon,PingFang SC,Mircrosoft YaHei,Arial;font-size:16.00pt">Cache</tspan></text></g></svg>